<svg width="18" height="18" viewBox="0 0 18 18" fill="none" xmlns="http://www.w3.org/2000/svg">
<path d="M13.8515 16.875C13.7332 16.8755 13.6176 16.8386 13.5214 16.7696L8.99999 13.4916L4.47854 16.7696C4.38194 16.8396 4.26557 16.8772 4.14624 16.8767C4.02691 16.8763 3.91081 16.8379 3.81472 16.7672C3.71863 16.6964 3.64754 16.5969 3.61172 16.4831C3.5759 16.3693 3.57721 16.247 3.61546 16.134L5.37889 10.9108L0.808581 7.77661C0.709584 7.7088 0.634868 7.61111 0.595348 7.49781C0.555828 7.3845 0.553575 7.26154 0.588919 7.14686C0.624263 7.03219 0.695351 6.93183 0.791797 6.86044C0.888243 6.78904 1.00499 6.75036 1.12499 6.75005H6.76335L8.46491 1.51352C8.50156 1.40047 8.57309 1.30193 8.66922 1.23204C8.76534 1.16216 8.88114 1.12451 8.99999 1.12451C9.11884 1.12451 9.23463 1.16216 9.33076 1.23204C9.42689 1.30193 9.49841 1.40047 9.53506 1.51352L11.2366 6.75181H16.875C16.9951 6.75175 17.1121 6.79016 17.2089 6.86141C17.3056 6.93267 17.377 7.03303 17.4125 7.14778C17.4481 7.26254 17.446 7.38568 17.4065 7.49915C17.367 7.61262 17.2923 7.71047 17.1931 7.77837L12.6211 10.9108L14.3835 16.1325C14.412 16.2171 14.4201 16.3072 14.4069 16.3955C14.3937 16.4837 14.3598 16.5676 14.3078 16.6401C14.2558 16.7127 14.1874 16.7718 14.108 16.8127C14.0287 16.8535 13.9408 16.8749 13.8515 16.875Z" fill="#5446F6"/>
</svg>
