<svg width="38" height="24" viewBox="0 0 38 24" fill="none" xmlns="http://www.w3.org/2000/svg">
<path d="M35.25 22.0305C34.9 22.0302 34.554 21.9565 34.2344 21.8141C34.16 21.781 34.0891 21.7407 34.0227 21.6937L27.5609 17.1453C27.2332 16.9146 26.9658 16.6085 26.7812 16.2529C26.5965 15.8972 26.5001 15.5023 26.5 15.1016V8.89844C26.5001 8.49768 26.5965 8.10282 26.7812 7.74714C26.9658 7.39146 27.2332 7.08537 27.5609 6.85469L34.0227 2.30625C34.0891 2.25925 34.16 2.21895 34.2344 2.18594C34.615 2.01671 35.0319 1.94528 35.4471 1.97813C35.8624 2.01097 36.2629 2.14706 36.6121 2.37402C36.9614 2.60098 37.2485 2.91162 37.4472 3.27772C37.6459 3.64381 37.75 4.05376 37.75 4.47031V19.5297C37.75 20.1927 37.4866 20.8286 37.0178 21.2975C36.5489 21.7663 35.913 22.0297 35.25 22.0297V22.0305ZM19.9375 23.25H5.5625C4.15398 23.2486 2.80357 22.6884 1.80759 21.6924C0.811621 20.6964 0.251448 19.346 0.25 17.9375V6.0625C0.251448 4.65398 0.811621 3.30357 1.80759 2.30759C2.80357 1.31162 4.15398 0.751448 5.5625 0.75H19.975C21.3735 0.751654 22.7143 1.30794 23.7032 2.29684C24.6921 3.28573 25.2483 4.62649 25.25 6.025V17.9375C25.2486 19.346 24.6884 20.6964 23.6924 21.6924C22.6964 22.6884 21.346 23.2486 19.9375 23.25Z" fill="#5446F6"/>
</svg>
