<svg width="32" height="32" viewBox="0 0 32 32" fill="none" xmlns="http://www.w3.org/2000/svg">
<path d="M8.31244 27.4999C7.9287 27.4992 7.55176 27.3986 7.21869 27.208C6.46869 26.783 6.00244 25.958 6.00244 25.0624V6.93737C6.00244 6.03924 6.46869 5.21674 7.21869 4.79174C7.55969 4.59576 7.94708 4.49498 8.34035 4.49993C8.73363 4.50488 9.11835 4.61537 9.45432 4.81987L24.9449 14.0924C25.2678 14.2948 25.5339 14.5759 25.7184 14.9093C25.9029 15.2427 25.9997 15.6176 25.9997 15.9986C25.9997 16.3797 25.9029 16.7545 25.7184 17.0879C25.5339 17.4213 25.2678 17.7024 24.9449 17.9049L9.45182 27.1799C9.108 27.3877 8.7142 27.4983 8.31244 27.4999Z" fill="white"/>
</svg>
