<svg width="24" height="24" viewBox="0 0 24 24" fill="none" xmlns="http://www.w3.org/2000/svg">
<path fill-rule="evenodd" clip-rule="evenodd" d="M13.963 1.55711C14.2432 1.44103 14.5658 1.50519 14.7803 1.71969L20.0303 6.96969C20.3232 7.26258 20.3232 7.73746 20.0303 8.03035L14.7803 13.2804C14.5658 13.4949 14.2432 13.559 13.963 13.4429C13.6827 13.3268 13.5 13.0534 13.5 12.75V8.25002H4.5C4.08579 8.25002 3.75 7.91424 3.75 7.50002C3.75 7.08581 4.08579 6.75002 4.5 6.75002H13.5V2.25002C13.5 1.94668 13.6827 1.6732 13.963 1.55711ZM15 8.25002V10.9394L17.6893 8.25002H15ZM17.6893 6.75002H15V4.06068L17.6893 6.75002ZM10.037 10.5571C10.3173 10.6732 10.5 10.9467 10.5 11.25V15.75H19.5C19.9142 15.75 20.25 16.0858 20.25 16.5C20.25 16.9142 19.9142 17.25 19.5 17.25H10.5V21.75C10.5 22.0534 10.3173 22.3268 10.037 22.4429C9.75676 22.559 9.43417 22.4948 9.21967 22.2803L3.96967 17.0304C3.67678 16.7375 3.67678 16.2626 3.96967 15.9697L9.21967 10.7197C9.43417 10.5052 9.75676 10.441 10.037 10.5571ZM9 15.75V13.0607L6.31066 15.75H9ZM6.31066 17.25H9V19.9394L6.31066 17.25Z" fill="black"/>
</svg>
