<svg width="24" height="24" viewBox="0 0 24 24" fill="none" xmlns="http://www.w3.org/2000/svg">
<path d="M19.9545 5.54299C17.8846 3.4854 15.096 2.3128 12.1777 2.27279C9.25932 2.23278 6.43965 3.3285 4.31407 5.32856C2.18849 7.32863 0.923398 10.0765 0.785934 12.9919C0.648469 15.9072 1.64939 18.7619 3.57735 20.9531L3.58579 20.9625C3.60125 20.9789 3.61579 20.9958 3.63266 21.0117C3.66735 21.0511 3.70672 21.0956 3.75313 21.142C3.93512 21.3355 4.15508 21.4893 4.39925 21.5938C4.64341 21.6983 4.90652 21.7513 5.17211 21.7495C5.4377 21.7476 5.70005 21.691 5.94273 21.5831C6.18542 21.4752 6.40322 21.3183 6.5825 21.1224C7.27234 20.3726 8.11022 19.7742 9.04317 19.3648C9.97612 18.9554 10.9839 18.7441 12.0027 18.7441C13.0215 18.7441 14.0292 18.9554 14.9622 19.3648C15.8951 19.7742 16.733 20.3726 17.4228 21.1224C17.6034 21.3193 17.823 21.4767 18.0676 21.5844C18.3121 21.6921 18.5764 21.7479 18.8437 21.7481C19.1109 21.7484 19.3753 21.6932 19.6201 21.5859C19.8649 21.4787 20.0848 21.3218 20.2658 21.1252L20.4163 20.9611L20.4247 20.9517C22.3243 18.8067 23.3336 16.0174 23.2465 13.1535C23.1594 10.2895 21.9824 7.56676 19.9559 5.54111L19.9545 5.54299ZM11.2498 6.00002C11.2498 5.8011 11.3289 5.61034 11.4695 5.46969C11.6102 5.32903 11.8009 5.25002 11.9998 5.25002C12.1988 5.25002 12.3895 5.32903 12.5302 5.46969C12.6708 5.61034 12.7498 5.8011 12.7498 6.00002V7.50002C12.7498 7.69893 12.6708 7.88969 12.5302 8.03035C12.3895 8.171 12.1988 8.25002 11.9998 8.25002C11.8009 8.25002 11.6102 8.171 11.4695 8.03035C11.3289 7.88969 11.2498 7.69893 11.2498 7.50002V6.00002ZM5.99985 14.25H4.49985C4.30094 14.25 4.11017 14.171 3.96952 14.0303C3.82887 13.8897 3.74985 13.6989 3.74985 13.5C3.74985 13.3011 3.82887 13.1103 3.96952 12.9697C4.11017 12.829 4.30094 12.75 4.49985 12.75H5.99985C6.19876 12.75 6.38953 12.829 6.53018 12.9697C6.67083 13.1103 6.74985 13.3011 6.74985 13.5C6.74985 13.6989 6.67083 13.8897 6.53018 14.0303C6.38953 14.171 6.19876 14.25 5.99985 14.25ZM8.28735 9.78752C8.14671 9.92806 7.95602 10.007 7.75719 10.007C7.55836 10.007 7.36767 9.92806 7.22703 9.78752L6.16625 8.7272C6.02559 8.58654 5.94656 8.39575 5.94656 8.19681C5.94656 7.99788 6.02559 7.80709 6.16625 7.66642C6.30692 7.52575 6.49771 7.44673 6.69664 7.44673C6.89558 7.44673 7.08637 7.52575 7.22703 7.66642L8.28735 8.7272C8.42789 8.86784 8.50684 9.05853 8.50684 9.25736C8.50684 9.45619 8.42789 9.64688 8.28735 9.78752ZM15.2858 10.8703L13.0592 14.4094C12.9681 14.5356 12.8573 14.6464 12.7311 14.7375C12.4263 14.9501 12.05 15.034 11.6838 14.9708C11.3176 14.9077 10.991 14.7027 10.775 14.4003C10.5591 14.0979 10.471 13.7226 10.5301 13.3557C10.5891 12.9888 10.7905 12.66 11.0905 12.4406L14.6295 10.2141C14.71 10.158 14.8057 10.1279 14.9038 10.1279C15.0018 10.1279 15.0975 10.158 15.178 10.2141C15.279 10.287 15.3471 10.397 15.3673 10.52C15.3875 10.6429 15.3582 10.7689 15.2858 10.8703ZM16.7727 9.78752C16.6309 9.92223 16.4421 9.99623 16.2465 9.99372C16.0509 9.99122 15.8641 9.91241 15.7258 9.77411C15.5875 9.63581 15.5086 9.44896 15.5061 9.25338C15.5036 9.05781 15.5776 8.869 15.7123 8.7272L16.7727 7.66642C16.9133 7.52575 17.1041 7.44673 17.3031 7.44673C17.502 7.44673 17.6928 7.52575 17.8334 7.66642C17.9741 7.80709 18.0531 7.99788 18.0531 8.19681C18.0531 8.39575 17.9741 8.58654 17.8334 8.7272L16.7727 9.78752ZM19.4998 14.25H17.9998C17.8009 14.25 17.6102 14.171 17.4695 14.0303C17.3289 13.8897 17.2498 13.6989 17.2498 13.5C17.2498 13.3011 17.3289 13.1103 17.4695 12.9697C17.6102 12.829 17.8009 12.75 17.9998 12.75H19.4998C19.6988 12.75 19.8895 12.829 20.0302 12.9697C20.1708 13.1103 20.2498 13.3011 20.2498 13.5C20.2498 13.6989 20.1708 13.8897 20.0302 14.0303C19.8895 14.171 19.6988 14.25 19.4998 14.25Z" fill="black"/>
</svg>
