<svg width="18" height="18" viewBox="0 0 18 18" fill="none" xmlns="http://www.w3.org/2000/svg">
<path fill-rule="evenodd" clip-rule="evenodd" d="M9.00004 1.125C9.24372 1.125 9.45968 1.2819 9.535 1.51364L11.2368 6.75H16.875C17.1216 6.75 17.3394 6.91051 17.4123 7.14598C17.4853 7.38145 17.3965 7.637 17.1931 7.77641L12.6222 10.9108L14.3846 16.1326C14.4628 16.3645 14.3822 16.6204 14.1851 16.7655C13.988 16.9106 13.7197 16.9116 13.5215 16.768L9.00004 13.4915L4.47854 16.768C4.28037 16.9116 4.01208 16.9106 3.81499 16.7655C3.61791 16.6204 3.53725 16.3645 3.61551 16.1326L5.37789 10.9108L0.806932 7.77641C0.603623 7.637 0.514777 7.38145 0.587755 7.14598C0.660732 6.91051 0.878525 6.75 1.12504 6.75H6.76327L8.46508 1.51364C8.5404 1.2819 8.75637 1.125 9.00004 1.125ZM9.00004 3.50738L7.70687 7.48636C7.63156 7.7181 7.41559 7.875 7.17192 7.875H2.94L6.36503 10.2236C6.57262 10.3659 6.66037 10.6289 6.57988 10.8674L5.2447 14.8235L8.66998 12.3414C8.86689 12.1987 9.13319 12.1987 9.3301 12.3414L12.7554 14.8235L11.4202 10.8674C11.3397 10.6289 11.4275 10.3659 11.6351 10.2236L15.0601 7.875H10.8282C10.5845 7.875 10.3685 7.7181 10.2932 7.48636L9.00004 3.50738Z" fill="black"/>
</svg>
