<svg width="152" height="56" viewBox="0 0 152 56" fill="none" xmlns="http://www.w3.org/2000/svg">
<g clip-path="url(#clip0)">
<path d="M42.9207 4.82683C42.9207 7.97181 40.6283 9.29539 38.3358 9.29539H26.714V50.7595C26.714 53.7388 24.8316 55.6427 21.64 55.6427C18.4484 55.6427 16.5661 53.7388 16.5661 50.8428V9.29539H4.85603C2.5636 9.29539 0.353516 7.97181 0.353516 4.82683C0.353516 1.68185 2.5636 0.357422 4.85603 0.357422H38.3392C40.6316 0.357422 42.9207 1.68185 42.9207 4.82683Z" fill="#5446F6"/>
<path d="M21.6384 56.0042C19.9947 56.0042 18.6189 55.5156 17.6599 54.5915C16.7008 53.6673 16.2092 52.3824 16.2092 50.8469V9.65274H4.85603C2.616 9.65274 0 8.38886 0 4.82679C0 1.26472 2.616 0 4.85603 0H38.3392C39.6468 0 40.8462 0.404475 41.7171 1.13774C42.7377 1.99799 43.2775 3.2728 43.2775 4.82679C43.2775 6.38078 42.7377 7.65223 41.7171 8.51499C40.8462 9.2491 39.6468 9.65274 38.3392 9.65274H27.0675V50.7595C27.0675 53.9919 24.9872 56.0042 21.6384 56.0042ZM4.85603 0.714768C1.79668 0.714768 0.707027 2.83889 0.707027 4.82679C0.707027 6.81469 1.79668 8.93797 4.85603 8.93797H16.9171V50.8427C16.9171 52.1781 17.343 53.294 18.1481 54.0701C18.9733 54.8648 20.1802 55.2852 21.6417 55.2852C24.5987 55.2852 26.3638 53.5933 26.3638 50.7595V8.93797H38.3417C40.2939 8.93797 42.573 7.86161 42.573 4.82679C42.573 1.79197 40.2914 0.714768 38.3392 0.714768H4.85603Z" fill="black"/>
<path d="M17.744 16.8962C17.9087 16.9854 18.0918 17.0343 18.2786 17.0389C18.4654 17.0436 18.6506 17.004 18.8195 16.9232C19.0498 16.8287 19.2551 16.6811 19.4191 16.4922C19.583 16.3032 19.7009 16.0782 19.7636 15.835C18.9767 13.2627 18.6623 10.5567 18.7654 7.82542C18.637 7.74513 18.4943 7.69086 18.3454 7.66564C18.0043 7.63958 17.6633 7.5866 17.2956 7.55969H17.2183C17.0348 7.55635 16.8567 7.62266 16.7192 7.74553C16.483 7.95744 16.3516 8.27614 16.3249 8.64698C16.1437 11.2151 16.4284 13.7951 17.1651 16.2597C17.2116 16.4011 17.2873 16.5309 17.3871 16.6407C17.4868 16.7504 17.6085 16.8375 17.744 16.8962Z" fill="white"/>
<path d="M21.0762 16.5515C21.3648 16.7104 21.7316 16.6843 22.0743 16.5515L22.2582 16.4186C22.9144 16.1268 23.3079 15.4642 23.1241 14.8806C22.3586 12.3949 22.0733 9.78352 22.2839 7.18886C22.3106 6.79027 21.9695 6.41943 21.5237 6.36645C21.156 6.33954 20.7626 6.28657 20.3949 6.2605H20.3167C20.1218 6.26735 19.9354 6.34325 19.7902 6.47493C19.6102 6.63985 19.4977 6.86694 19.475 7.11149C19.2654 10.1085 19.5806 13.0264 20.4731 15.8376C20.5198 15.992 20.5975 16.1351 20.7012 16.2579C20.805 16.3807 20.9326 16.4807 21.0762 16.5515Z" fill="white"/>
<path d="M25.982 11.2471C26.1864 11.5681 26.5061 11.7964 26.8737 11.8837L27.1623 11.9627C27.345 12.0058 27.5342 12.0116 27.7191 11.9797C27.9039 11.9478 28.0806 11.8788 28.2387 11.7769C28.5564 11.5704 28.7822 11.2472 28.8684 10.8754L29.7343 6.89544C29.7627 6.78345 29.768 6.66673 29.7499 6.55257C29.7317 6.43842 29.6904 6.32927 29.6286 6.23197C29.5691 6.13076 29.4894 6.04315 29.3946 5.97469C29.2998 5.90622 29.192 5.85839 29.078 5.83422L27.7138 5.51552C27.6556 5.49504 27.594 5.48674 27.5325 5.49113C27.3659 5.49057 27.2024 5.53655 27.06 5.62399C26.9599 5.68421 26.8733 5.76478 26.8055 5.8606C26.7378 5.95642 26.6905 6.06541 26.6666 6.18067L25.8007 10.159C25.7581 10.3435 25.7522 10.5347 25.7833 10.7215C25.8145 10.9083 25.882 11.0869 25.982 11.2471Z" fill="white"/>
<path d="M15.3559 16.4715L15.5139 16.4186C15.9598 16.2596 16.2484 15.8089 16.2742 15.3313C15.7976 13.3623 15.5947 11.3359 15.6711 9.3104C15.6161 9.22356 15.5429 9.15 15.4566 9.09493C15.3704 9.03985 15.2732 9.00461 15.172 8.9917C14.8834 8.96563 14.5682 8.91265 14.2795 8.88574H14.1963C14.0432 8.88682 13.8956 8.94353 13.7805 9.04551C13.57 9.20444 13.4394 9.49624 13.4128 9.8141C13.2567 11.749 13.4343 13.6966 13.9377 15.5701C13.9796 15.7546 14.0598 15.9281 14.1729 16.079C14.286 16.2299 14.4295 16.3548 14.5939 16.4455C14.8576 16.5514 15.1196 16.5783 15.3559 16.4715Z" fill="white"/>
<path d="M28.5532 12.3345C28.2223 12.5436 27.8396 12.6538 27.4494 12.6524C27.2996 12.6465 27.1506 12.6288 27.0036 12.5994L26.7149 12.5203C26.4463 12.4618 26.192 12.3497 25.9668 12.1905C25.7416 12.0314 25.5501 11.8284 25.4035 11.5934C25.257 11.3584 25.1582 11.0963 25.1132 10.8223C25.0681 10.5482 25.0777 10.2679 25.1412 9.99763L26.0071 6.01931C26.0505 5.80755 26.14 5.60821 26.2691 5.43572C26.0595 4.77225 25.3541 3.07446 24.4591 3.20733C23.7504 3.31328 23.2521 3.57901 22.9619 3.97675C22.6208 4.45439 22.546 5.11702 22.7256 6.04538L24.7452 12.8357C24.7605 12.8774 24.7671 12.9218 24.7647 12.9662C24.7624 13.0106 24.751 13.0541 24.7313 13.0939C24.7117 13.1337 24.6842 13.169 24.6505 13.1976C24.6169 13.2262 24.5778 13.2476 24.5356 13.2603C24.5037 13.2786 24.4674 13.2876 24.4308 13.2864C24.3613 13.2808 24.2948 13.2554 24.239 13.2132C24.1832 13.1709 24.1404 13.1135 24.1156 13.0476L22.8595 8.82961C22.8565 10.8337 23.1484 12.8272 23.7254 14.7445C24.0141 15.6695 23.4892 16.6786 22.4927 17.1049L22.3355 17.189C22.0854 17.2925 21.818 17.3464 21.5478 17.348C21.2862 17.349 21.0273 17.2949 20.7875 17.189C20.5321 17.0762 20.3071 16.9032 20.1312 16.6845C19.8862 17.0912 19.5182 17.4073 19.0815 17.5859C18.8325 17.6918 18.5648 17.7459 18.2946 17.7449C18.0045 17.7499 17.7171 17.6865 17.4554 17.5599C17.0087 17.3211 16.6676 16.9494 16.5404 16.4987V16.4457C16.3302 16.7273 16.0493 16.9471 15.7269 17.0822L15.5697 17.1352C15.3849 17.2085 15.1875 17.2436 14.9891 17.2387H14.8843C15.3301 18.3259 15.9332 19.3603 16.7467 20.2096C17.9536 21.4827 19.5282 22.1193 21.4172 22.1193C28.1073 22.1193 29.7077 16.4432 29.8649 15.6443C29.7077 15.2457 29.1829 13.8406 28.658 12.2487C28.6322 12.2815 28.5798 12.3076 28.5532 12.3345Z" fill="white"/>
<path d="M29.2096 11.6978C29.3429 11.4857 29.4404 11.2527 29.4982 11.0083L30.3608 7.02913C30.4053 6.83028 30.4096 6.62439 30.3734 6.42383C30.3373 6.22326 30.2614 6.03215 30.1504 5.86195C29.93 5.51116 29.5808 5.26316 29.1797 5.17241L27.8446 4.87726C27.4986 4.80151 27.1374 4.84842 26.8215 5.01012C26.5329 4.21462 25.7202 2.38398 24.3819 2.5715C23.4894 2.70436 22.8339 3.04913 22.4405 3.60581C22.047 4.16249 21.9156 4.90585 22.047 5.86027C21.9059 5.79716 21.7545 5.76122 21.6003 5.75432C21.2335 5.72825 20.8401 5.67527 20.4724 5.64836C20.2706 5.6301 20.0672 5.6528 19.8741 5.71515C19.6811 5.77749 19.5023 5.87821 19.3484 6.01139C19.1944 6.14458 19.0683 6.30753 18.9775 6.49068C18.8867 6.67383 18.833 6.87348 18.8196 7.0779V7.10481C18.705 7.04896 18.5793 7.02021 18.452 7.02072C18.0852 6.96774 17.7441 6.94168 17.3765 6.91477C17.1831 6.89333 16.9874 6.91374 16.8024 6.97463C16.6174 7.03553 16.4473 7.13551 16.3035 7.26795C15.944 7.58731 15.7188 8.03338 15.6738 8.51501C15.5361 8.43457 15.385 8.38041 15.2279 8.35523C14.9393 8.32917 14.6241 8.27619 14.3354 8.24928C14.1624 8.22522 13.9863 8.2388 13.8189 8.28912C13.6515 8.33945 13.4966 8.42535 13.3647 8.54107C12.9971 8.83287 12.7875 9.28359 12.7351 9.78814C12.5799 11.7939 12.7573 13.8119 13.2599 15.7586C13.3686 16.2334 13.6494 16.6498 14.0468 16.9257C14.5193 18.2779 15.2279 19.604 16.2511 20.6652C17.6152 22.0712 19.3204 22.7608 21.3932 22.7608H21.4198C29.0283 22.7608 30.5496 15.7316 30.5763 15.6526L30.602 15.5458L30.5496 15.4928C30.5471 15.4642 29.8617 13.6605 29.2096 11.6978ZM27.0578 5.62398C27.2009 5.53609 27.3653 5.49009 27.5327 5.49112C27.5951 5.48692 27.6577 5.49579 27.7165 5.51718L29.0807 5.83589C29.1947 5.86006 29.3025 5.90789 29.3973 5.97635C29.4921 6.04482 29.5718 6.13243 29.6313 6.23363C29.6925 6.33091 29.7332 6.43985 29.7509 6.5537C29.7687 6.66754 29.7631 6.78386 29.7345 6.89543L28.8686 10.8737C28.7824 11.2455 28.5566 11.5687 28.2389 11.7752C28.0808 11.8771 27.9041 11.9461 27.7193 11.978C27.5345 12.0099 27.3452 12.0042 27.1626 11.961L26.8739 11.882C26.5063 11.7947 26.1866 11.5664 25.9822 11.2454C25.8818 11.0854 25.8138 10.9068 25.7822 10.72C25.7507 10.5332 25.7562 10.3419 25.7984 10.1573L26.6643 6.18066C26.6882 6.0654 26.7355 5.95641 26.8033 5.86058C26.871 5.76476 26.9576 5.6842 27.0578 5.62398ZM19.4751 7.10901C19.4984 6.86536 19.6108 6.63927 19.7903 6.47497C19.9355 6.34457 20.1212 6.26961 20.3152 6.26307H20.3934C20.7611 6.28913 21.1545 6.34211 21.5222 6.36902C21.968 6.422 22.309 6.78947 22.2824 7.19142C22.0722 9.78647 22.358 12.3982 23.1242 14.884C23.308 15.4676 22.9146 16.1302 22.2583 16.422L22.0745 16.5549C21.7334 16.6878 21.3666 16.7138 21.0763 16.5549C20.9323 16.4839 20.8044 16.3836 20.7005 16.2603C20.5965 16.1371 20.5189 15.9934 20.4724 15.8384C19.5807 13.0239 19.2655 10.106 19.4751 7.10901ZM16.3267 8.64703C16.3534 8.27619 16.4848 7.95749 16.721 7.74558C16.8585 7.62271 17.0366 7.5564 17.2201 7.55974H17.3016C17.6693 7.58665 18.0103 7.63963 18.3513 7.66569C18.5003 7.69091 18.643 7.74518 18.7714 7.82546C18.6666 10.5567 18.981 13.2627 19.7696 15.8351C19.7069 16.0783 19.5889 16.3033 19.425 16.4922C19.2611 16.6811 19.0558 16.8287 18.8255 16.9232C18.6566 17.004 18.4713 17.0437 18.2845 17.039C18.0978 17.0343 17.9147 16.9854 17.75 16.8963C17.6148 16.8373 17.4935 16.7501 17.394 16.6404C17.2945 16.5307 17.2191 16.401 17.1727 16.2597C16.4341 13.7955 16.1474 11.2155 16.3267 8.64703ZM13.9395 15.5702C13.4361 13.6967 13.2585 11.7491 13.4146 9.8142C13.4412 9.49634 13.5718 9.20455 13.7823 9.04562C13.8975 8.94363 14.0451 8.88693 14.1982 8.88585H14.2814C14.57 8.91275 14.8852 8.96994 15.1739 8.9918C15.2751 9.00472 15.3722 9.03996 15.4585 9.09503C15.5447 9.1501 15.6179 9.22366 15.673 9.3105C15.5965 11.336 15.7995 13.3625 16.276 15.3314C16.2502 15.809 15.9616 16.2564 15.5157 16.4187L15.3577 16.4716C15.1215 16.5784 14.8586 16.5557 14.5974 16.4456C14.4327 16.3551 14.2889 16.2302 14.1755 16.0793C14.0621 15.9284 13.9816 15.7549 13.9395 15.5702ZM21.4173 22.1217C19.5283 22.1217 17.9537 21.4851 16.7468 20.212C15.9333 19.3627 15.3328 18.3284 14.8844 17.2411H14.9892C15.1867 17.2448 15.3829 17.2088 15.5665 17.1351L15.7237 17.0821C16.0461 16.947 16.327 16.7272 16.5372 16.4456V16.4985C16.6678 16.9493 17.0088 17.321 17.4522 17.5598C17.7139 17.6864 18.0013 17.7498 18.2915 17.7448C18.5616 17.7458 18.8293 17.6917 19.0783 17.5858C19.5156 17.4075 19.8843 17.0914 20.1297 16.6844C20.3055 16.9031 20.5306 17.0761 20.786 17.1889C21.0257 17.2948 21.2847 17.3489 21.5463 17.3479C21.8165 17.3463 22.0839 17.2924 22.334 17.1889L22.4912 17.1048C23.4894 16.6844 24.0125 15.6753 23.7239 14.7444C23.1474 12.827 22.8561 10.8336 22.8597 8.8295L24.1223 13.05C24.1472 13.1159 24.1899 13.1733 24.2458 13.2156C24.3016 13.2578 24.3681 13.2832 24.4376 13.2888C24.4742 13.29 24.5105 13.281 24.5424 13.2628C24.5845 13.25 24.6237 13.2286 24.6573 13.2C24.691 13.1714 24.7185 13.1361 24.7381 13.0963C24.7578 13.0565 24.7691 13.0131 24.7715 12.9686C24.7739 12.9242 24.7673 12.8798 24.752 12.8381L22.7291 6.04779C22.5419 5.11944 22.6251 4.4568 22.9653 3.97917C23.254 3.58142 23.7522 3.3157 24.4626 3.20974C25.3542 3.07688 26.0629 4.77467 26.2725 5.43814C26.1435 5.61063 26.054 5.80997 26.0105 6.02173L25.1446 10C25.0811 10.2703 25.0716 10.5507 25.1167 10.8247C25.1617 11.0987 25.2604 11.3609 25.407 11.5958C25.5536 11.8308 25.7451 12.0338 25.9702 12.1929C26.1954 12.3521 26.4498 12.4642 26.7184 12.5228L27.007 12.6018C27.154 12.6312 27.3031 12.6489 27.4529 12.6548C27.8425 12.6559 28.2246 12.5457 28.555 12.3369C28.5816 12.31 28.6382 12.2839 28.6598 12.2528C29.1847 13.8447 29.7095 15.2498 29.8667 15.6484C29.7079 16.4456 28.1075 22.1217 21.4173 22.1217Z" fill="black"/>
<path d="M51.8078 41.2707C51.7986 42.7102 51.2409 44.0908 50.2507 45.1254L51.9658 50.1439C52.3493 51.3069 51.8302 52.5388 50.5218 52.9265C49.4164 53.2687 48.2202 52.8348 47.8143 51.6264L46.1649 46.7677H42.9209V51.0327C42.9209 52.4698 41.8836 53.0408 40.665 53.0408C39.5138 53.0408 38.5664 52.2647 38.5664 50.9873V38.0542C38.5664 36.7769 39.4914 35.7737 40.6459 35.7737H46.3537C49.7541 35.7737 51.8078 38.3738 51.8078 41.2707ZM47.4076 41.248C47.3996 40.9138 47.2632 40.596 47.0273 40.3618C46.7915 40.1276 46.4747 39.9954 46.1441 39.9933H42.8951V42.5497H46.1441C46.8436 42.5497 47.4076 41.9089 47.4076 41.248Z" fill="#5446F6"/>
<path d="M49.7771 53.4217C49.2643 53.4305 48.7624 53.2725 48.3452 52.9711C47.9279 52.6697 47.6175 52.2407 47.4597 51.7475L45.8992 47.146H43.2916V51.0327C43.2916 52.5043 42.2842 53.4192 40.6614 53.4192C39.2282 53.4192 38.1885 52.3966 38.1885 50.9873V38.0542C38.1885 36.5633 39.2648 35.3953 40.639 35.3953H46.3467C48.0661 35.3953 49.5467 36.0108 50.628 37.1763C51.6262 38.2569 52.1818 39.7108 52.1818 41.2707C52.1762 42.7283 51.641 44.133 50.6779 45.2178L52.3199 50.0203C52.4344 50.348 52.482 50.6959 52.4597 51.0428C52.4374 51.3897 52.3457 51.7284 52.1901 52.0384C51.8807 52.6363 51.3259 53.0795 50.6272 53.2863C50.352 53.3739 50.0655 53.4195 49.7771 53.4217ZM42.5404 46.3892H46.4316L48.165 51.5036C48.4229 52.2697 49.2347 52.9281 50.4109 52.5648C50.9241 52.4126 51.3076 52.1107 51.5247 51.6911C51.6335 51.4709 51.6971 51.2307 51.7114 50.985C51.7257 50.7393 51.6904 50.4932 51.6079 50.2616L49.8245 45.0278L49.9867 44.8596C50.9053 43.8939 51.424 42.6096 51.4365 41.2698C51.4365 38.7261 49.6897 36.1512 46.3501 36.1512H40.639C39.6849 36.1512 38.9371 36.9863 38.9371 38.0534V50.9864C38.9371 51.9728 39.6458 52.6615 40.6614 52.6615C41.3643 52.6615 42.5429 52.4496 42.5429 51.0319L42.5404 46.3892ZM46.1413 42.9264H42.5205V39.6149H46.1438C47.0321 39.6149 47.7816 40.3625 47.7816 41.2479C47.7816 42.1334 47.0163 42.9264 46.1438 42.9264H46.1413ZM43.2666 42.1696H46.1413C46.6503 42.1696 47.0305 41.6827 47.0305 41.2446C47.0217 41.0111 46.9246 40.7899 46.7591 40.6268C46.5936 40.4638 46.3724 40.3712 46.1413 40.3684H43.2691L43.2666 42.1696Z" fill="black"/>
<path d="M67.4214 52.9945C66.34 53.2468 65.1198 52.6068 64.8262 51.4666L64.3071 49.0944H59.1633L58.6418 51.4632C58.3257 52.6262 57.0846 53.2199 56.0466 52.9911C55.0318 52.7178 54.1742 51.6684 54.3771 50.5054L57.2651 37.5715C57.4681 36.6826 58.3931 35.7703 59.4761 35.7703H63.9885C65.0948 35.7703 65.9973 36.6591 66.2003 37.5715L69.0883 50.4827C69.3162 51.6264 68.4137 52.7439 67.4214 52.9945ZM62.2318 40.0387H61.2386L60.0883 44.8318H63.383L62.2318 40.0387Z" fill="#5446F6"/>
<path d="M66.9456 53.4277C65.8144 53.4277 64.7472 52.6633 64.4644 51.5617V51.5482L64.0102 49.4729H59.4636L59.0053 51.5667C58.9154 51.8883 58.762 52.1882 58.5544 52.4483C58.3469 52.7084 58.0894 52.9234 57.7975 53.0804C57.2397 53.3901 56.5911 53.4893 55.9676 53.3604L55.9501 53.3562C54.8247 53.0526 53.7617 51.851 54.0087 50.4382V50.4214L56.8967 37.4875C57.1271 36.4784 58.1777 35.3911 59.4753 35.3911H63.9878C65.3087 35.3911 66.3351 36.4574 66.5663 37.4883L69.4552 50.4113C69.728 51.7913 68.6492 53.0736 67.5096 53.3621H67.5021C67.3196 53.4049 67.133 53.4269 66.9456 53.4277ZM65.1906 51.3792C65.4235 52.2714 66.4033 52.8424 67.3341 52.6288C68.1418 52.4219 68.9062 51.4986 68.7249 50.5661L65.8377 37.659C65.6763 36.9342 64.9227 36.1521 63.9911 36.1521H59.4786C58.5803 36.1521 57.7992 36.9316 57.6329 37.6607L54.7465 50.5829C54.5802 51.5659 55.3363 52.4068 56.1373 52.6271C56.9591 52.8029 58.0122 52.3437 58.2808 51.375L58.8631 48.7161H64.6091L65.1906 51.3792ZM63.8597 45.2087H59.6117L60.9426 39.6587H62.523L63.8597 45.2087ZM60.5649 44.4519H62.9073L61.9382 40.4155H61.534L60.5649 44.4519Z" fill="black"/>
<path d="M73.9194 35.5449C74.7761 35.5449 75.3409 35.8645 75.7493 36.3858L81.8215 44.2062V37.5522C81.8215 36.5036 82.6533 35.5449 83.965 35.5449C85.3408 35.5449 86.1759 36.5036 86.1759 37.5522V51.0066C86.1759 52.0561 85.3441 53.0374 83.965 53.0374C83.1972 53.0374 82.6341 52.7406 82.2049 52.1965L76.1328 44.3954V51.01C76.1328 52.0594 75.301 53.0408 73.9219 53.0408C72.6126 53.0408 71.7783 52.0594 71.7783 51.01V37.5555C71.7758 36.5036 72.6101 35.5449 73.9194 35.5449Z" fill="#5446F6"/>
<path d="M83.9599 53.4192C83.1098 53.4192 82.4194 53.0829 81.9062 52.4312L76.5045 45.4929V51.0143C76.5045 52.1823 75.5987 53.4234 73.9193 53.4234C73.5815 53.4296 73.2459 53.3681 72.9318 53.2424C72.6177 53.1166 72.3314 52.9293 72.0893 52.691C71.6499 52.2457 71.4018 51.6432 71.3989 51.0143V37.5598C71.3983 37.2493 71.4592 36.9419 71.5781 36.6556C71.6969 36.3694 71.8713 36.1101 72.091 35.8931C72.5823 35.4199 73.2383 35.1616 73.9168 35.1741C74.8318 35.1741 75.5238 35.4979 76.0387 36.1639L81.4396 43.1249V37.5522C81.4389 37.2418 81.4998 36.9343 81.6187 36.6481C81.7376 36.3618 81.912 36.1025 82.1316 35.8855C82.6237 35.4108 83.2816 35.1524 83.9616 35.1666C85.4355 35.1666 86.5468 36.1925 86.5468 37.5522V51.0067C86.5451 52.1781 85.6385 53.4192 83.9599 53.4192ZM75.7559 43.3065L82.4935 51.9678C82.8669 52.4446 83.3336 52.6675 83.9599 52.6675C84.8499 52.6675 85.7965 52.0881 85.7965 51.0151V37.5606C85.7965 36.7517 85.1652 35.9318 83.9599 35.9318C82.8104 35.9318 82.1907 36.7727 82.1907 37.5606V45.3171L75.4531 36.6314C75.0838 36.1538 74.5964 35.9318 73.9201 35.9318C72.7706 35.9318 72.1509 36.7727 72.1509 37.5606V51.0151C72.1509 51.8165 72.7706 52.6675 73.9201 52.6675C74.8101 52.6675 75.7567 52.0881 75.7567 51.0151L75.7559 43.3065Z" fill="black"/>
<path d="M88.856 49.5729C88.8568 49.3011 88.9027 49.0314 88.9915 48.7749C89.3292 47.7717 90.1644 47.3151 91.0444 47.3151C91.4919 47.318 91.9325 47.4275 92.3304 47.6346C93.4583 48.1821 94.7675 48.5243 96.6399 48.5243C99.0089 48.5243 99.6186 47.6346 99.6186 46.8131C99.6186 45.6047 98.8284 45.011 96.6399 45.011C92.0825 45.011 89.1488 42.3882 89.1488 38.6933C89.1488 35.3398 91.541 32.4656 96.6399 32.4656C98.9864 32.4656 100.994 32.9903 102.507 33.811C102.869 34.0137 103.172 34.311 103.382 34.6721C103.592 35.0332 103.703 35.4447 103.702 35.8637C103.697 36.2179 103.62 36.5673 103.476 36.8904C103.093 37.7111 102.349 38.2132 101.558 38.2132C101.213 38.2076 100.873 38.1212 100.566 37.9609C99.5504 37.4362 98.3551 37.025 96.6175 37.025C94.7875 37.025 93.9998 37.8465 93.9998 38.7135C93.9998 39.694 94.6993 40.4466 96.6399 40.4466C101.631 40.4466 104.515 42.8852 104.515 46.7879C104.515 49.8673 102.352 53.0837 96.8204 53.0837H96.0535C94.2235 53.0837 91.8795 52.6498 90.661 52.0343C89.7135 51.581 88.856 50.6913 88.856 49.5729Z" fill="#5446F6"/>
<path d="M96.8212 53.4646H96.0543C94.1129 53.4646 91.7223 52.9962 90.4945 52.3756C89.5247 51.9089 88.4824 50.9251 88.4824 49.5729C88.4834 49.2605 88.5357 48.9505 88.6371 48.6555C88.9998 47.5783 89.8998 46.9367 91.0493 46.9367C91.5548 46.9399 92.0525 47.0629 92.5025 47.2957C93.7119 47.8844 94.9912 48.1459 96.6448 48.1459C98.7975 48.1459 99.2492 47.421 99.2492 46.8131C99.2492 46.1244 99.0479 45.3894 96.6448 45.3894C94.3391 45.3894 92.3694 44.7453 90.9479 43.526C89.5496 42.3268 88.7794 40.6106 88.7794 38.6933C88.7794 36.8551 89.4739 35.2035 90.7349 34.0423C92.124 32.7632 94.1678 32.0872 96.6407 32.0872C98.919 32.0872 101.009 32.5682 102.685 33.478C103.107 33.7124 103.46 34.0578 103.705 34.4778C103.95 34.8978 104.079 35.3769 104.077 35.8645C104.072 36.2733 103.984 36.6767 103.817 37.0493C103.372 38.0021 102.507 38.5924 101.559 38.5924C101.155 38.5885 100.758 38.4889 100.4 38.3014C99.5911 37.881 98.434 37.4059 96.6182 37.4059C95.2557 37.4059 94.3724 37.9205 94.3724 38.716C94.3724 39.6149 95.1351 40.0707 96.6382 40.0707C99.1544 40.0707 101.244 40.6904 102.68 41.8627C104.117 43.0349 104.89 44.7444 104.89 46.7904C104.89 49.8655 102.776 53.4646 96.8212 53.4646ZM91.0452 47.6935C90.6567 47.6935 89.7143 47.8112 89.3458 48.8968C89.2711 49.1131 89.2323 49.3404 89.231 49.5695C89.231 50.5694 90.0529 51.3211 90.8223 51.692C91.9677 52.2705 94.2135 52.7011 96.0543 52.7011H96.8212C99.2442 52.7011 101.202 52.0477 102.483 50.8124C103.552 49.7815 104.141 48.3502 104.141 46.7836C104.141 43.05 101.337 40.8208 96.6407 40.8208C94.018 40.8208 93.6263 39.498 93.6263 38.7093C93.6263 37.7557 94.4098 36.6423 96.6207 36.6423C98.5962 36.6423 99.8597 37.1645 100.74 37.6195C100.994 37.7533 101.275 37.825 101.562 37.8288C102.217 37.8288 102.823 37.4084 103.142 36.7231C103.262 36.4505 103.327 36.1562 103.332 35.8578C103.334 35.5068 103.242 35.1618 103.066 34.859C102.891 34.5563 102.637 34.307 102.334 34.1373C100.769 33.2871 98.8017 32.8372 96.6465 32.8372C94.3591 32.8372 92.4875 33.4452 91.2398 34.5947C90.1211 35.6257 89.5288 37.0409 89.5288 38.6866C89.5288 42.2394 92.3894 44.6259 96.6457 44.6259C98.207 44.6259 99.9986 44.8781 99.9986 46.8063C99.9986 47.5867 99.5628 48.896 96.6457 48.896C94.8989 48.896 93.4774 48.6008 92.1739 47.971C91.8242 47.7901 91.4372 47.695 91.0444 47.6935H91.0452Z" fill="black"/>
<path d="M107.064 50.714C107.064 49.5965 107.876 48.5697 109.004 48.5697H110.086L110.108 40.0388H109.003C107.875 40.0388 107.062 39.0356 107.062 37.9171C107.062 36.7987 107.875 35.7737 109.003 35.7737H115.727C116.877 35.7737 117.689 36.7996 117.689 37.9171C117.689 39.0347 116.877 40.0388 115.727 40.0388H114.576L114.553 48.5697H115.727C116.877 48.5697 117.689 49.5965 117.689 50.714C117.689 51.8316 116.877 52.8348 115.727 52.8348H109.003C107.876 52.8348 107.064 51.8316 107.064 50.714Z" fill="#5446F6"/>
<path d="M115.729 53.2133H109.004C107.728 53.2133 106.689 52.0924 106.689 50.7141C106.689 49.3233 107.728 48.1914 109.004 48.1914H109.714L109.735 40.4173H109.004C107.728 40.4173 106.689 39.2955 106.689 37.9172C106.689 36.5264 107.728 35.3945 109.004 35.3945H115.729C117.017 35.3945 118.065 36.5255 118.065 37.9172C118.065 39.3089 117.039 40.4173 115.729 40.4173H114.954L114.933 48.1914H115.732C117.02 48.1914 118.068 49.3233 118.068 50.7141C118.068 52.105 117.039 53.2133 115.729 53.2133ZM109.004 48.9482C108.037 48.9482 107.438 49.8648 107.438 50.7141C107.438 51.6753 108.141 52.4565 109.004 52.4565H115.729C116.509 52.4565 117.316 51.8048 117.316 50.7141C117.316 49.8648 116.709 48.9482 115.729 48.9482H114.18L114.204 39.6604H115.729C116.509 39.6604 117.316 39.0087 117.316 37.9172C117.316 37.0679 116.709 36.1513 115.729 36.1513H109.004C108.037 36.1513 107.438 37.0671 107.438 37.9172C107.438 38.8784 108.141 39.6604 109.004 39.6604H110.485L110.462 48.9482H109.004Z" fill="black"/>
<path d="M128.07 48.9801C128.995 48.9801 129.627 48.8666 130.011 48.5698V45.9697H129.492C128.364 45.9697 127.439 45.3079 127.439 44.0306C127.439 42.7533 128.364 42.0006 129.492 42.0006H132.357C133.576 42.0006 134.298 42.8416 134.298 44.076V49.8017C134.303 50.0678 134.251 50.3318 134.146 50.5758C134.04 50.8197 133.884 51.0379 133.688 51.2153C131.996 52.607 130.169 53.109 127.98 53.109C123.941 53.109 120.398 50.0977 120.398 46.1749V42.7078C120.398 38.6715 123.874 35.4761 127.98 35.4761C129.81 35.4761 131.319 35.9806 132.605 36.639C133.779 37.2327 134.162 38.6463 133.485 39.7184C133.228 40.1406 132.825 40.4515 132.354 40.5912C131.883 40.731 131.378 40.6897 130.936 40.4752C129.74 39.9051 129.063 39.6091 128.07 39.6091C126.31 39.6091 124.731 41.0227 124.731 42.7566V46.1328C124.731 47.7945 126.356 48.9801 128.07 48.9801Z" fill="#5446F6"/>
<path d="M127.98 53.4873C125.939 53.4991 123.964 52.7556 122.427 51.3968C120.877 50.011 120.024 48.1568 120.024 46.1748V42.7077C120.024 38.5116 123.593 35.0984 127.98 35.0984C129.63 35.0984 131.199 35.4919 132.775 36.3026C133.097 36.4604 133.382 36.6857 133.612 36.9637C133.841 37.2416 134.009 37.5658 134.105 37.9146C134.197 38.2521 134.217 38.6052 134.165 38.9511C134.113 39.297 133.989 39.628 133.803 39.9227C133.494 40.4191 133.016 40.784 132.459 40.9485C131.902 41.1131 131.305 41.0658 130.78 40.8157C129.633 40.2683 128.992 39.984 128.072 39.984C126.491 39.984 125.107 41.2782 125.107 42.7531V46.1294C125.107 47.3184 126.24 48.6016 128.072 48.6016C128.82 48.6016 129.319 48.5251 129.638 48.362V46.3438H129.493C128.041 46.3438 127.066 45.4121 127.066 44.0263C127.066 42.6085 128.064 41.6179 129.493 41.6179H132.359C133.743 41.6179 134.674 42.6043 134.674 44.0717V49.7974C134.678 50.1173 134.614 50.4344 134.487 50.7274C134.36 51.0203 134.172 51.2824 133.937 51.496L133.926 51.5053C132.26 52.8768 130.426 53.4873 127.98 53.4873ZM127.98 35.8552C124.006 35.8552 120.773 38.9287 120.773 42.7077V46.1748C120.773 47.9407 121.536 49.5897 122.923 50.8292C124.274 52.0376 126.117 52.7305 127.98 52.7305C130.24 52.7305 131.927 52.1738 133.447 50.9267C133.602 50.785 133.725 50.6111 133.807 50.4169C133.889 50.2227 133.929 50.0128 133.923 49.8016V44.0759C133.923 43.013 133.341 42.3789 132.357 42.3789H129.491C128.66 42.3789 127.813 42.8894 127.813 44.0305C127.813 45.1716 128.68 45.5912 129.491 45.5912H130.385V48.7563L130.238 48.8699C129.801 49.2062 129.132 49.3584 128.07 49.3584C126.022 49.3584 124.357 47.9096 124.357 46.1294V42.7531C124.357 40.8418 126.057 39.2272 128.07 39.2272C129.151 39.2272 129.886 39.5535 131.095 40.1295C131.455 40.3053 131.866 40.3397 132.249 40.2261C132.633 40.1125 132.961 39.859 133.17 39.5148C133.301 39.3104 133.388 39.0799 133.425 38.8388C133.462 38.5977 133.447 38.3514 133.383 38.1164C133.314 37.8698 133.194 37.6408 133.031 37.4447C132.868 37.2485 132.666 37.0896 132.438 36.9786C130.967 36.2218 129.511 35.8552 127.98 35.8552Z" fill="black"/>
<path d="M139.374 35.5449C140.232 35.5449 140.796 35.8645 141.204 36.3858L147.277 44.2062V37.5522C147.277 36.5036 148.108 35.5449 149.42 35.5449C150.797 35.5449 151.631 36.5036 151.631 37.5522V51.0066C151.631 52.0561 150.799 53.0374 149.42 53.0374C148.653 53.0374 148.089 52.7406 147.66 52.1965L141.588 44.3954V51.01C141.588 52.0594 140.756 53.0408 139.377 53.0408C138.069 53.0408 137.233 52.0594 137.233 51.01V37.5555C137.231 36.5036 138.066 35.5449 139.374 35.5449Z" fill="#5446F6"/>
<path d="M149.415 53.4194C148.566 53.4194 147.874 53.083 147.361 52.4313L141.96 45.493V51.0144C141.96 52.1824 141.054 53.4236 139.374 53.4236C139.037 53.4298 138.701 53.3682 138.387 53.2425C138.073 53.1168 137.786 52.9294 137.544 52.6912C137.105 52.2457 136.857 51.6433 136.854 51.0144V37.5599C136.854 37.2494 136.915 36.942 137.034 36.6557C137.153 36.3694 137.327 36.1102 137.547 35.8933C138.038 35.4197 138.694 35.1613 139.372 35.1743C140.287 35.1743 140.979 35.498 141.495 36.164L146.895 43.1175V37.5524C146.895 37.2419 146.956 36.9344 147.075 36.6481C147.194 36.3619 147.369 36.1026 147.588 35.8857C148.079 35.4122 148.735 35.1538 149.413 35.1667C150.887 35.1667 151.999 36.1926 151.999 37.5524V51.0068C152 52.1782 151.094 53.4194 149.415 53.4194ZM141.211 43.3067L147.948 51.968C148.322 52.4448 148.788 52.6676 149.414 52.6676C150.305 52.6676 151.251 52.0882 151.251 51.0152V37.5608C151.251 36.7518 150.62 35.9319 149.414 35.9319C148.265 35.9319 147.645 36.7729 147.645 37.5608V45.3173L140.907 36.6316C140.538 36.1539 140.051 35.9319 139.374 35.9319C138.226 35.9319 137.605 36.7729 137.605 37.5608V51.0152C137.605 51.8166 138.226 52.6676 139.374 52.6676C140.265 52.6676 141.211 52.0882 141.211 51.0152V43.3067Z" fill="black"/>
<path d="M93.4439 46.7382C93.5286 46.7385 93.6125 46.7219 93.6908 46.6892C93.7692 46.6566 93.8403 46.6086 93.9002 46.548C93.96 46.4874 94.0074 46.4154 94.0396 46.3362C94.0718 46.257 94.0881 46.1721 94.0877 46.0865V43.917C94.0868 43.8085 94.0439 43.7048 93.9681 43.628C93.8924 43.5513 93.7898 43.5077 93.6826 43.5066H93.1935C93.0863 43.5079 92.9838 43.5516 92.9079 43.6282C92.8321 43.7049 92.7889 43.8085 92.7876 43.917H92.8001V46.0865C92.7996 46.1721 92.816 46.257 92.8482 46.3362C92.8804 46.4154 92.9277 46.4874 92.9876 46.548C93.0475 46.6086 93.1186 46.6566 93.1969 46.6892C93.2752 46.7219 93.3592 46.7385 93.4439 46.7382Z" fill="white"/>
<path d="M93.4442 46.8224C93.2514 46.8219 93.0666 46.7442 92.9303 46.6063C92.7941 46.4684 92.7174 46.2815 92.7172 46.0866V44.0011H92.7056V43.9171C92.7081 43.7869 92.7603 43.6627 92.8513 43.5706C92.9423 43.4784 93.0651 43.4254 93.1938 43.4226H93.6829C93.8117 43.4254 93.9344 43.4784 94.0254 43.5706C94.1164 43.6627 94.1686 43.7869 94.1712 43.9171V46.0866C94.171 46.2815 94.0943 46.4684 93.9581 46.6063C93.8218 46.7442 93.637 46.8219 93.4442 46.8224ZM92.8827 43.833V46.0866C92.8827 46.2369 92.9418 46.3811 93.0469 46.4874C93.1521 46.5936 93.2947 46.6534 93.4434 46.6534C93.5921 46.6534 93.7346 46.5936 93.8398 46.4874C93.9449 46.3811 94.004 46.2369 94.004 46.0866V43.9171C94.0029 43.831 93.9687 43.7488 93.9086 43.6878C93.8485 43.6269 93.7672 43.5921 93.6821 43.5908H93.193C93.1224 43.592 93.054 43.6162 92.9981 43.6598C92.9422 43.7035 92.9017 43.7642 92.8827 43.833Z" fill="black"/>
<path d="M94.3979 43.9171V46.6778C94.3976 46.7633 94.414 46.8481 94.4463 46.9272C94.4785 47.0063 94.5259 47.0782 94.5858 47.1387C94.6456 47.1992 94.7167 47.2472 94.795 47.2798C94.8733 47.3123 94.9571 47.329 95.0418 47.3286H95.1374C95.2221 47.329 95.3059 47.3123 95.3842 47.2798C95.4625 47.2472 95.5336 47.1992 95.5934 47.1387C95.6533 47.0782 95.7007 47.0063 95.7329 46.9272C95.7652 46.8481 95.7816 46.7633 95.7812 46.6778V44.9539C95.707 44.8563 95.6507 44.7461 95.6149 44.6285L95.5067 44.3022C95.4664 44.1767 95.4596 44.0427 95.4869 43.9136C95.5142 43.7846 95.5747 43.6651 95.6623 43.5673C95.6856 43.5429 95.7097 43.5193 95.7338 43.4949C95.7033 43.4209 95.6519 43.3576 95.5861 43.3128C95.5204 43.2679 95.443 43.2436 95.3637 43.2427H94.7814C94.6742 43.2436 94.5715 43.287 94.4956 43.3635C94.4197 43.4401 94.3766 43.5438 94.3755 43.6522H94.3996L94.3979 43.9171Z" fill="white"/>
<path d="M95.1378 47.4126H95.0421C94.8494 47.4123 94.6646 47.3348 94.5283 47.1971C94.392 47.0593 94.3154 46.8725 94.3151 46.6776V43.7344H94.291V43.6504C94.2938 43.5202 94.3462 43.3961 94.4374 43.3041C94.5285 43.2121 94.6513 43.1593 94.7801 43.1567H95.3624C95.4581 43.1579 95.5514 43.1874 95.6307 43.2414C95.7101 43.2955 95.7721 43.3719 95.8091 43.4612L95.8307 43.5133L95.7192 43.626C95.6422 43.7126 95.5891 43.8182 95.5655 43.9322C95.5418 44.0462 95.5484 44.1645 95.5845 44.2751L95.6918 44.6006C95.7259 44.7094 95.7782 44.8115 95.8465 44.9025L95.8631 44.9243V46.6768C95.8631 46.8715 95.7868 47.0582 95.6508 47.1962C95.5149 47.3341 95.3304 47.4119 95.1378 47.4126ZM94.4724 43.5671H94.4848V46.6784C94.4851 46.8287 94.5442 46.9727 94.6493 47.079C94.7544 47.1852 94.8968 47.245 95.0455 47.2452H95.1411C95.2898 47.2452 95.4324 47.1855 95.5375 47.0792C95.6427 46.9729 95.7018 46.8288 95.7018 46.6784V44.9815C95.6286 44.8817 95.5724 44.7703 95.5354 44.6519L95.4289 44.329C95.3833 44.1896 95.3751 44.0405 95.4052 43.8968C95.4353 43.7532 95.5026 43.6203 95.6003 43.5116L95.6327 43.4788C95.6042 43.4326 95.5646 43.3944 95.5177 43.3676C95.4707 43.3409 95.4179 43.3265 95.364 43.3258H94.7818C94.7108 43.3263 94.642 43.3502 94.5856 43.3937C94.5292 43.4372 94.4883 43.4981 94.469 43.5671H94.4724Z" fill="black"/>
<path d="M98.858 44.0736L99.0967 44.3023V43.4749C99.0958 43.3697 99.0541 43.269 98.9805 43.1946C98.9069 43.1202 98.8073 43.078 98.7033 43.0771H98.121C98.015 43.0789 97.9141 43.1231 97.8403 43.2001C97.7666 43.277 97.726 43.3804 97.7276 43.4875V43.6431L98.1435 43.7272C98.4056 43.7833 98.6506 43.9021 98.858 44.0736Z" fill="white"/>
<path d="M99.1801 44.4982L98.8025 44.1358C98.6058 43.9732 98.3737 43.8602 98.1254 43.8061L97.6421 43.7086V43.4832C97.6406 43.3538 97.6899 43.229 97.7793 43.1363C97.8686 43.0436 97.9907 42.9905 98.1187 42.9888H98.701C98.8269 42.9905 98.9471 43.0418 99.0361 43.1318C99.1251 43.2218 99.1759 43.3434 99.1776 43.4706L99.1801 44.4982ZM97.8085 43.5732L98.1595 43.6438C98.4366 43.7033 98.6952 43.83 98.9131 44.013L99.0113 44.1072V43.4748C99.0102 43.392 98.9771 43.3128 98.9192 43.2542C98.8612 43.1956 98.7829 43.1622 98.701 43.1612H98.1187C98.0349 43.1631 97.9552 43.1986 97.8971 43.2597C97.839 43.3208 97.8071 43.4027 97.8085 43.4874V43.5732Z" fill="black"/>
<path d="M96.3538 43.3378L97.4277 43.5673V43.3504C97.426 43.2394 97.3816 43.1335 97.304 43.055C97.2263 42.9765 97.1215 42.9317 97.0118 42.9299H96.4628C96.3543 42.9299 96.2501 42.9727 96.1724 43.0492C96.0948 43.1257 96.0497 43.2298 96.0469 43.3394C96.1478 43.3157 96.2527 43.3151 96.3538 43.3378Z" fill="white"/>
<path d="M97.5105 43.6706L96.336 43.4183C96.2458 43.3965 96.1518 43.3965 96.0616 43.4183L95.9551 43.4427L95.9609 43.3317C95.9664 43.2011 96.0212 43.0776 96.1141 42.9865C96.2069 42.8955 96.3307 42.8439 96.46 42.8423H97.009C97.1407 42.8445 97.2664 42.8983 97.3595 42.9925C97.4526 43.0866 97.5059 43.2137 97.508 43.3468L97.5105 43.6706ZM96.371 43.256L97.3442 43.4637V43.3502C97.3427 43.2615 97.3071 43.1768 97.2451 43.114C97.183 43.0513 97.0992 43.0153 97.0115 43.0138H96.4625C96.3936 43.0139 96.3264 43.0357 96.2702 43.076C96.214 43.1164 96.1716 43.1734 96.1489 43.2392C96.2233 43.2338 96.2982 43.2395 96.371 43.256Z" fill="black"/>
<path d="M98.6561 44.2904C98.4908 44.1512 98.2939 44.0559 98.083 44.0129L96.2946 43.6278C96.2168 43.6113 96.1361 43.6161 96.0607 43.6415C95.9853 43.6669 95.9179 43.7121 95.8654 43.7724C95.8127 43.832 95.7761 43.9043 95.7594 43.9825C95.7426 44.0606 95.7462 44.1418 95.7698 44.2181L95.8771 44.5435C95.9153 44.6672 95.9798 44.7809 96.066 44.8767C96.1522 44.9726 96.258 45.0483 96.3761 45.0985L97.9624 45.7973C97.9912 45.7916 98.021 45.7943 98.0484 45.805C98.0758 45.8157 98.0996 45.834 98.1171 45.8578L99.1086 47.2588C99.1203 47.2744 99.1286 47.2922 99.1332 47.3112C99.1377 47.3303 99.1383 47.35 99.135 47.3693C99.1316 47.3885 99.1244 47.4069 99.1137 47.4232C99.103 47.4395 99.0891 47.4534 99.0728 47.464C99.0476 47.4791 99.019 47.4875 98.9896 47.4884H98.9655C98.8128 47.5884 98.6351 47.6426 98.4531 47.6448H98.3575C98.224 47.6447 98.092 47.6156 97.9706 47.5594C97.8492 47.5033 97.7412 47.4214 97.6538 47.3193C97.5851 47.4996 97.4639 47.6545 97.3064 47.7638C97.1489 47.8731 96.9623 47.9315 96.7712 47.9315H96.6764C96.4847 47.933 96.2972 47.8748 96.1393 47.7648C95.9814 47.6549 95.8608 47.4985 95.7939 47.3168C95.7063 47.4186 95.5982 47.5002 95.4768 47.5564C95.3554 47.6125 95.2236 47.6418 95.0902 47.6422H94.9912C94.7571 47.6429 94.5312 47.5557 94.357 47.3976C94.1829 47.2394 94.0731 47.0216 94.0488 46.7862C93.9642 46.8714 93.8638 46.9387 93.7532 46.9842C93.6427 47.0296 93.5243 47.0524 93.405 47.0511C93.2227 47.051 93.0444 46.9966 92.8926 46.8947C92.9042 47.353 92.9874 48.3419 93.6412 49.0651C94.2018 49.6913 95.0367 50.0046 96.1457 50.0052C98.8907 50.0052 99.3531 48.8843 99.6875 48.0762C99.8189 47.7751 100.187 46.3044 100.164 45.7611L98.6561 44.2904Z" fill="white"/>
<path d="M96.1558 50.0893C95.0271 50.0893 94.1595 49.7638 93.5897 49.1214C93.1081 48.5899 92.8411 47.8214 92.817 46.8972L92.812 46.7349L92.9459 46.8249C93.0845 46.9172 93.2466 46.9666 93.4126 46.967C93.5205 46.9676 93.6275 46.9467 93.7274 46.9054C93.8273 46.8642 93.9182 46.8033 93.9948 46.7265L94.1188 46.6012L94.1362 46.7778C94.1577 46.9926 94.2577 47.1916 94.4166 47.3359C94.5755 47.4802 94.7819 47.5595 94.9955 47.5582H95.0911C95.2126 47.5576 95.3326 47.5309 95.4431 47.4797C95.5535 47.4285 95.6519 47.354 95.7316 47.2613L95.8239 47.1545L95.8722 47.2874C95.9338 47.4527 96.044 47.5949 96.1879 47.695C96.3319 47.7951 96.5027 47.8483 96.6774 47.8474H96.7722C96.947 47.8479 97.1179 47.7944 97.2618 47.694C97.4057 47.5936 97.5158 47.4512 97.5774 47.2857L97.6281 47.1587L97.7171 47.2613C97.7967 47.3544 97.8952 47.429 98.0058 47.4802C98.1165 47.5314 98.2367 47.558 98.3584 47.5582H98.4541C98.6209 47.5561 98.7837 47.5059 98.9232 47.4135L98.9432 47.4017H98.9906C99.005 47.4012 99.0191 47.3968 99.0313 47.3891C99.0436 47.3793 99.0519 47.3652 99.0546 47.3496C99.0559 47.3426 99.0556 47.3353 99.0539 47.3284C99.0522 47.3214 99.049 47.3149 99.0447 47.3092L98.0523 45.9066C98.044 45.8959 98.0329 45.8877 98.0203 45.883C98.0077 45.8782 97.994 45.8771 97.9808 45.8797L97.9558 45.8856L96.3455 45.175C96.2164 45.1205 96.1006 45.0382 96.0062 44.9338C95.9118 44.8293 95.8411 44.7053 95.799 44.5704L95.6917 44.245C95.6633 44.1544 95.6588 44.0578 95.6786 43.9649C95.6985 43.872 95.742 43.786 95.8049 43.7153C95.8677 43.6446 95.9478 43.5918 96.037 43.5619C96.1263 43.5321 96.2217 43.5264 96.3139 43.5454L98.1014 43.9313C98.3268 43.9763 98.5371 44.0785 98.7128 44.2282L100.252 45.7225V45.7561C100.277 46.3094 99.9056 47.7928 99.7675 48.1106C99.4248 48.9448 98.9515 50.0893 96.1558 50.0893ZM92.9892 47.041C93.0349 47.8575 93.2836 48.5353 93.7128 49.0079C94.2543 49.6142 95.0762 49.9211 96.1558 49.9211C98.845 49.9211 99.2934 48.8363 99.6211 48.0442C99.7484 47.7507 100.099 46.3464 100.093 45.7981L98.603 44.3518C98.4486 44.225 98.2658 44.1384 98.0706 44.0995L96.2814 43.7135C96.2178 43.7011 96.1522 43.7056 96.0908 43.7265C96.0294 43.7474 95.9745 43.784 95.9313 43.8328C95.8881 43.8816 95.8582 43.9409 95.8445 44.0049C95.8308 44.0689 95.8337 44.1354 95.8531 44.1979L95.9604 44.5217C95.9948 44.634 96.0532 44.7374 96.1313 44.8246C96.2095 44.9117 96.3056 44.9806 96.4129 45.0262L97.98 45.7166C98.0201 45.7137 98.0603 45.7211 98.0969 45.738C98.1335 45.7549 98.1654 45.7808 98.1896 45.8133L99.1811 47.2134C99.1989 47.2371 99.2118 47.2642 99.219 47.2932C99.2261 47.3221 99.2274 47.3521 99.2227 47.3816C99.2177 47.413 99.2064 47.4431 99.1894 47.4699C99.1723 47.4967 99.15 47.5196 99.1237 47.5371L99.1145 47.5422C99.0778 47.5636 99.0363 47.5751 98.9939 47.5758C98.8329 47.6765 98.6476 47.7306 98.4582 47.7322H98.3626C98.1115 47.7328 97.8694 47.6383 97.6838 47.4673C97.5954 47.6339 97.4637 47.773 97.3029 47.8696C97.1422 47.9662 96.9584 48.0167 96.7714 48.0156H96.6765C96.4895 48.0161 96.3058 47.9649 96.1454 47.8675C95.985 47.7701 95.854 47.6303 95.7665 47.4631C95.5807 47.6318 95.34 47.7255 95.0903 47.7263H94.9913C94.7626 47.7274 94.54 47.6511 94.3591 47.5096C94.1782 47.368 94.0494 47.1693 93.9932 46.9451C93.8224 47.0701 93.6167 47.1367 93.4059 47.1352C93.2606 47.1345 93.1171 47.1024 92.985 47.041H92.9892Z" fill="black"/>
<path d="M96.7712 47.6061C96.8558 47.6064 96.9397 47.5898 97.018 47.5572C97.0962 47.5246 97.1673 47.4767 97.2272 47.4162C97.287 47.3557 97.3344 47.2838 97.3667 47.2047C97.3989 47.1256 97.4153 47.0408 97.415 46.9552V45.8822L96.2463 45.3777C96.1748 45.3449 96.107 45.3043 96.0442 45.2566V46.6794H96.0317V46.9569C96.0314 47.0425 96.0479 47.1274 96.0802 47.2066C96.1124 47.2857 96.1599 47.3577 96.2199 47.4182C96.2798 47.4787 96.351 47.5266 96.4294 47.5591C96.5077 47.5917 96.5917 47.6082 96.6764 47.6078L96.7712 47.6061Z" fill="white"/>
<path d="M96.7714 47.6902H96.6765C96.4837 47.69 96.2989 47.6125 96.1624 47.4748C96.026 47.337 95.9492 47.1502 95.9487 46.9553V46.5937H95.9612V45.0801L96.096 45.1894C96.1544 45.2328 96.2171 45.27 96.2831 45.3004L97.4984 45.8268V46.9553C97.4981 47.1501 97.4215 47.337 97.2852 47.4747C97.1489 47.6125 96.9641 47.69 96.7714 47.6902ZM96.1151 46.7652V46.9587C96.1153 47.109 96.1746 47.2532 96.2798 47.3595C96.3851 47.4657 96.5278 47.5254 96.6765 47.5254H96.7714C96.9201 47.5254 97.0627 47.4657 97.1678 47.3594C97.2729 47.2531 97.332 47.109 97.332 46.9587V45.9412L96.2141 45.456L96.1309 45.4114V46.7652H96.1151Z" fill="black"/>
<path d="M98.4648 47.3428C98.5688 47.3445 98.6715 47.3196 98.7634 47.2705L97.9316 46.1008C97.92 46.1008 97.9075 46.0882 97.8959 46.0882L97.7295 46.0159V46.6886C97.7292 46.7742 97.7456 46.859 97.7778 46.9382C97.81 47.0174 97.8574 47.0893 97.9173 47.1499C97.9771 47.2104 98.0482 47.2584 98.1265 47.2911C98.2047 47.3238 98.2886 47.3405 98.3733 47.3403L98.4648 47.3428Z" fill="white"/>
<path d="M98.4647 47.4269H98.3691C98.1763 47.4265 97.9915 47.3488 97.8552 47.2109C97.719 47.073 97.6423 46.8861 97.6421 46.6911V45.8889L97.9158 46.0075C97.9247 46.0095 97.9333 46.0126 97.9415 46.0167H97.9706L98.8856 47.2966L98.8024 47.3428C98.6988 47.3994 98.5825 47.4283 98.4647 47.4269ZM97.8084 46.1437V46.6911C97.8087 46.8415 97.8678 46.9856 97.9729 47.092C98.0779 47.1983 98.2204 47.2583 98.3691 47.2588H98.4647C98.5211 47.2588 98.5771 47.2506 98.6311 47.2344L97.8717 46.1723L97.8084 46.1437Z" fill="black"/>
<path d="M100.468 45.6165L99.4187 44.5923V43.4747C99.4185 43.2894 99.3456 43.1118 99.216 42.9808C99.0865 42.8498 98.9108 42.7761 98.7275 42.7759H98.1453C97.9622 42.7774 97.7869 42.8507 97.6562 42.9802C97.5937 42.87 97.5034 42.7784 97.3946 42.7149C97.2857 42.6514 97.1621 42.6182 97.0365 42.6187H96.4883C96.3417 42.6198 96.199 42.6669 96.0799 42.7533C95.9607 42.8397 95.8709 42.9613 95.8229 43.1013C95.6978 42.9999 95.5424 42.9445 95.382 42.9441H94.7998C94.6622 42.9453 94.528 42.9871 94.4137 43.0643C94.2993 43.1416 94.2097 43.2509 94.1559 43.3788C94.0313 43.2669 93.8693 43.2068 93.7026 43.2107H93.2135C93.027 43.2111 92.8483 43.2862 92.7164 43.4195C92.5845 43.5528 92.5103 43.7335 92.5098 43.9221V46.0916C92.5078 46.2671 92.5576 46.4393 92.6529 46.586C92.6412 46.6466 92.4982 48.1653 93.4639 49.2626C94.0728 49.9497 94.9911 50.2995 96.183 50.2995C98.8905 50.2995 99.5585 49.2626 99.9993 48.1896C100.119 47.8398 100.537 46.2488 100.477 45.6821L100.468 45.6165ZM97.7235 43.4831C97.722 43.376 97.7625 43.2726 97.8363 43.1957C97.9101 43.1187 98.011 43.0745 98.117 43.0727H98.6992C98.8033 43.0736 98.9029 43.1158 98.9765 43.1902C99.0501 43.2646 99.0918 43.3653 99.0927 43.4705V44.3021L98.8539 44.0734C98.6466 43.9006 98.4013 43.7806 98.1386 43.7236L97.7227 43.6395L97.7235 43.4831ZM96.4592 42.9281H97.0082C97.118 42.9298 97.2227 42.9747 97.3004 43.0532C97.378 43.1317 97.4224 43.2376 97.4241 43.3486V43.5655L96.3502 43.3359C96.2484 43.3124 96.1426 43.3124 96.0408 43.3359C96.0441 43.2259 96.0899 43.1215 96.1684 43.0453C96.247 42.969 96.352 42.927 96.4609 42.9281H96.4592ZM94.7781 43.2418H95.3604C95.4397 43.2426 95.5171 43.267 95.5828 43.3118C95.6486 43.3567 95.7 43.42 95.7305 43.494C95.7064 43.5184 95.6823 43.542 95.659 43.5664C95.5714 43.6642 95.5109 43.7837 95.4836 43.9127C95.4563 44.0418 95.4632 44.1758 95.5035 44.3013L95.6116 44.6276C95.6474 44.7452 95.7037 44.8554 95.778 44.953V46.6769C95.7783 46.7624 95.7619 46.8472 95.7296 46.9263C95.6974 47.0054 95.65 47.0773 95.5901 47.1378C95.5303 47.1983 95.4592 47.2463 95.3809 47.2789C95.3026 47.3114 95.2188 47.3281 95.1341 47.3277H95.0385C94.9538 47.3281 94.87 47.3114 94.7917 47.2789C94.7135 47.2463 94.6424 47.1983 94.5825 47.1378C94.5227 47.0773 94.4753 47.0054 94.443 46.9263C94.4108 46.8472 94.3943 46.7624 94.3947 46.6769V43.6496H94.3706C94.3721 43.5409 94.4159 43.4372 94.4925 43.3609C94.569 43.2845 94.6723 43.2418 94.7798 43.2418H94.7781ZM92.7818 43.9145C92.7831 43.8061 92.8263 43.7024 92.9021 43.6258C92.978 43.5491 93.0805 43.5054 93.1877 43.5041H93.6768C93.7841 43.5052 93.8866 43.5488 93.9624 43.6256C94.0381 43.7023 94.081 43.8061 94.0819 43.9145V46.084C94.0819 46.2566 94.0141 46.4222 93.8933 46.5442C93.7726 46.6663 93.6089 46.7349 93.4381 46.7349C93.2674 46.7349 93.1036 46.6663 92.9829 46.5442C92.8621 46.4222 92.7943 46.2566 92.7943 46.084V43.9145H92.7818ZM99.6857 48.0736C99.353 48.8817 98.8864 50.0026 96.1439 50.0026C95.0349 50.0026 94.2 49.6893 93.6394 49.0625C92.9831 48.3393 92.8999 47.3504 92.8908 46.8921C93.0426 46.9941 93.2209 47.0485 93.4032 47.0485C93.5225 47.0498 93.6409 47.0271 93.7514 46.9816C93.862 46.9361 93.9625 46.8688 94.047 46.7837C94.0707 47.0197 94.1806 47.2384 94.3551 47.3972C94.5296 47.5559 94.7563 47.6432 94.9911 47.6422H95.0867C95.2202 47.6417 95.352 47.6125 95.4733 47.5563C95.5947 47.5002 95.7028 47.4185 95.7904 47.3168C95.8574 47.4984 95.9779 47.6548 96.1358 47.7648C96.2937 47.8748 96.4812 47.933 96.673 47.9315H96.7678C96.9591 47.9313 97.1459 47.8725 97.3035 47.7627C97.4611 47.653 97.582 47.4975 97.6503 47.3168C97.7377 47.4188 97.8458 47.5007 97.9672 47.5569C98.0886 47.613 98.2205 47.6421 98.354 47.6422H98.4497C98.6317 47.6401 98.8093 47.5858 98.9621 47.4858H98.9862C99.0155 47.485 99.0442 47.4766 99.0694 47.4614C99.0856 47.4508 99.0995 47.4369 99.1102 47.4206C99.1209 47.4043 99.1282 47.386 99.1315 47.3667C99.1349 47.3475 99.1343 47.3277 99.1297 47.3087C99.1252 47.2897 99.1168 47.2718 99.1051 47.2562L98.1153 45.8578C98.0978 45.834 98.074 45.8157 98.0466 45.805C98.0192 45.7942 97.9894 45.7916 97.9606 45.7973L96.3744 45.0985C96.2562 45.0482 96.1504 44.9725 96.0642 44.8767C95.978 44.7808 95.9135 44.6671 95.8753 44.5435L95.768 44.2181C95.7444 44.1418 95.7408 44.0606 95.7576 43.9824C95.7743 43.9043 95.8109 43.8319 95.8636 43.7724C95.9161 43.712 95.9835 43.6669 96.0589 43.6414C96.1343 43.616 96.215 43.6113 96.2928 43.6277L98.0812 44.0129C98.2921 44.0558 98.489 44.1512 98.6543 44.2904L100.168 45.7611C100.194 46.3043 99.8247 47.7751 99.6932 48.0761L99.6857 48.0736ZM96.0258 46.9527V46.6752H96.0383V45.2549C96.1011 45.3026 96.1689 45.3432 96.2404 45.376L97.4091 45.8805V46.9535C97.4094 47.0391 97.393 47.1239 97.3608 47.203C97.3285 47.2821 97.2811 47.354 97.2213 47.4145C97.1614 47.475 97.0903 47.5229 97.0121 47.5555C96.9338 47.5881 96.8499 47.6047 96.7653 47.6044H96.6705C96.5007 47.6037 96.3381 47.535 96.2183 47.4133C96.0986 47.2916 96.0314 47.1269 96.0317 46.9552L96.0258 46.9527ZM97.7194 46.6869V46.0142L97.8857 46.0865C97.8974 46.0865 97.9099 46.0992 97.9215 46.0992L98.7533 47.2689C98.6613 47.3179 98.5586 47.3428 98.4547 47.3412H98.359C98.1897 47.339 98.0281 47.2692 97.9094 47.1472C97.7907 47.0251 97.7245 46.8606 97.7252 46.6895L97.7194 46.6869Z" fill="black"/>
<path d="M96.1749 50.3784C94.9555 50.3784 94.0197 50.0202 93.3942 49.3139C92.4617 48.2552 92.5374 46.8483 92.5624 46.6019C92.4677 46.4472 92.4186 46.2684 92.421 46.0865V43.9169C92.4212 43.706 92.5042 43.5038 92.6517 43.3547C92.7992 43.2055 92.9992 43.1217 93.2079 43.1214H93.697C93.8477 43.1195 93.9956 43.1629 94.122 43.2459C94.1908 43.1274 94.289 43.0291 94.4069 42.9607C94.5247 42.8923 94.6582 42.8561 94.7941 42.8557H95.3764C95.5188 42.8562 95.6584 42.8954 95.7806 42.9692C95.8466 42.8375 95.9473 42.7268 96.0716 42.6493C96.196 42.5718 96.3391 42.5306 96.4851 42.5303H97.0341C97.1575 42.5307 97.279 42.5598 97.3895 42.6152C97.4999 42.6706 97.5963 42.7508 97.6713 42.8498C97.8071 42.7458 97.9725 42.6889 98.1429 42.6875H98.7252C98.9304 42.688 99.1271 42.7706 99.2723 42.9173C99.4174 43.064 99.4991 43.2629 99.4996 43.4704V44.556L100.549 45.5811V45.6727C100.608 46.2614 100.181 47.881 100.068 48.2123C99.6185 49.3105 98.9473 50.3784 96.1749 50.3784ZM93.2054 43.2896C93.0409 43.2898 92.8832 43.356 92.7668 43.4736C92.6505 43.5912 92.5851 43.7506 92.5848 43.9169V46.0865C92.5827 46.2456 92.6279 46.4018 92.7146 46.5347L92.7337 46.5633L92.7263 46.5977C92.7263 46.6112 92.5599 48.1156 93.5181 49.2045C94.1104 49.8773 95.0045 50.2136 96.1749 50.2136C98.845 50.2136 99.4863 49.197 99.918 48.1559C100.051 47.7649 100.445 46.2151 100.389 45.6887V45.6559L99.3391 44.6309V43.4746C99.3388 43.3117 99.2747 43.1554 99.1607 43.0402C99.0467 42.925 98.8922 42.8601 98.731 42.8599H98.1487C97.9877 42.8612 97.8335 42.9257 97.7187 43.0399L97.6405 43.1189L97.5873 43.0214C97.5317 42.9244 97.4519 42.8439 97.3558 42.788C97.2598 42.732 97.1508 42.7026 97.04 42.7027H96.4885C96.3587 42.7032 96.2323 42.7445 96.1268 42.8209C96.0213 42.8973 95.9419 43.005 95.8996 43.129L95.8605 43.2408L95.769 43.1668C95.6584 43.0775 95.5212 43.0286 95.3797 43.0281H94.7974C94.6764 43.0298 94.5584 43.0669 94.4577 43.135C94.357 43.203 94.278 43.2991 94.2301 43.4115L94.1844 43.5192L94.1012 43.441C93.9917 43.3432 93.8497 43.2907 93.7036 43.2938L93.2054 43.2896ZM96.1558 50.0892C95.027 50.0892 94.1594 49.7637 93.5897 49.1213C93.1081 48.5898 92.841 47.8213 92.8169 46.8971L92.8119 46.7348L92.9459 46.8248C93.0844 46.9171 93.2466 46.9665 93.4125 46.9669C93.5204 46.9675 93.6274 46.9466 93.7273 46.9053C93.8272 46.864 93.9181 46.8032 93.9947 46.7264L94.1187 46.6011L94.1361 46.7777C94.1577 46.9925 94.2576 47.1915 94.4165 47.3358C94.5754 47.4801 94.7818 47.5594 94.9954 47.558H95.0911C95.2126 47.5575 95.3326 47.5308 95.443 47.4796C95.5535 47.4284 95.6518 47.3539 95.7315 47.2612L95.8239 47.1544L95.8721 47.2873C95.9337 47.4525 96.0439 47.5948 96.1879 47.6949C96.3318 47.795 96.5026 47.8482 96.6773 47.8473H96.7721C96.947 47.8478 97.1178 47.7943 97.2617 47.6939C97.4056 47.5935 97.5157 47.451 97.5773 47.2856L97.628 47.1586L97.717 47.2612C97.7967 47.3542 97.8951 47.4289 98.0058 47.4801C98.1164 47.5313 98.2367 47.5579 98.3584 47.558H98.454C98.6208 47.556 98.7836 47.5058 98.9232 47.4134L98.9431 47.4016H98.9905C99.005 47.4011 99.019 47.3967 99.0313 47.389C99.0436 47.3792 99.0519 47.3651 99.0546 47.3495C99.0558 47.3424 99.0555 47.3352 99.0538 47.3282C99.0521 47.3213 99.049 47.3148 99.0446 47.3091L98.0523 45.9065C98.0439 45.8958 98.0329 45.8876 98.0202 45.8829C98.0076 45.8781 97.9939 45.877 97.9807 45.8796L97.9558 45.8855L96.3454 45.1749C96.2163 45.1204 96.1005 45.0381 96.0061 44.9336C95.9117 44.8292 95.841 44.7052 95.7989 44.5703L95.6916 44.2449C95.6632 44.1543 95.6587 44.0577 95.6786 43.9648C95.6984 43.8719 95.7419 43.7859 95.8048 43.7152C95.8677 43.6445 95.9477 43.5916 96.037 43.5618C96.1262 43.532 96.2217 43.5263 96.3138 43.5452L98.1013 43.9312C98.3267 43.9762 98.5371 44.0784 98.7127 44.2281L100.253 45.724V45.7577C100.278 46.311 99.9072 47.7918 99.7699 48.1122C99.4239 48.9455 98.9506 50.0892 96.1558 50.0892ZM92.9891 47.0409C93.0349 47.8574 93.2836 48.5352 93.7128 49.0078C94.2543 49.6141 95.0761 49.921 96.1558 49.921C98.845 49.921 99.2933 48.8362 99.621 48.0441C99.7483 47.7523 100.099 46.348 100.093 45.7997L98.6021 44.3525C98.4481 44.2256 98.2655 44.1389 98.0706 44.1002L96.2814 43.7143C96.2178 43.7018 96.1521 43.7063 96.0907 43.7272C96.0293 43.7481 95.9744 43.7848 95.9312 43.8336C95.8881 43.8824 95.8582 43.9417 95.8444 44.0057C95.8307 44.0696 95.8337 44.1361 95.853 44.1986L95.9603 44.5224C95.9947 44.6348 96.0531 44.7382 96.1313 44.8253C96.2094 44.9125 96.3055 44.9813 96.4128 45.0269L97.9799 45.7173C98.02 45.7145 98.0602 45.7218 98.0969 45.7387C98.1335 45.7556 98.1653 45.7815 98.1895 45.814L99.181 47.2141C99.1989 47.2378 99.2118 47.265 99.2189 47.2939C99.2261 47.3228 99.2273 47.3529 99.2226 47.3823C99.2177 47.4137 99.2063 47.4438 99.1893 47.4706C99.1723 47.4974 99.1499 47.5203 99.1236 47.5379L99.1145 47.5429C99.0777 47.5643 99.0362 47.5759 98.9939 47.5765C98.8328 47.6773 98.6475 47.7314 98.4582 47.733H98.3625C98.1115 47.7336 97.8693 47.6391 97.6838 47.4681C97.5952 47.6345 97.4635 47.7734 97.3027 47.8699C97.1419 47.9663 96.9582 48.0167 96.7713 48.0155H96.6765C96.4894 48.016 96.3057 47.9648 96.1453 47.8674C95.985 47.77 95.8539 47.6302 95.7665 47.463C95.5807 47.6317 95.34 47.7254 95.0902 47.7262H94.9912C94.7625 47.7273 94.5399 47.651 94.3591 47.5094C94.1782 47.3679 94.0493 47.1692 93.9931 46.945C93.8224 47.07 93.6166 47.1366 93.4058 47.1351C93.2605 47.1344 93.117 47.1022 92.9849 47.0409H92.9891ZM96.7754 47.6901H96.6806C96.4878 47.6898 96.3029 47.6124 96.1665 47.4746C96.0301 47.3369 95.9532 47.15 95.9528 46.9551V46.5935H95.9653V45.0799L96.1 45.1892C96.1585 45.2326 96.2212 45.2698 96.2872 45.3002L97.5024 45.8266V46.9551C97.5023 47.052 97.4833 47.1478 97.4465 47.2372C97.4096 47.3266 97.3557 47.4078 97.2878 47.476C97.2199 47.5443 97.1393 47.5984 97.0506 47.6351C96.962 47.6718 96.8671 47.6905 96.7713 47.6901H96.7754ZM96.1192 46.7651V46.9585C96.1194 47.1089 96.1786 47.253 96.2839 47.3593C96.3892 47.4656 96.5319 47.5252 96.6806 47.5252H96.7754C96.9241 47.5252 97.0667 47.4655 97.1719 47.3593C97.277 47.253 97.3361 47.1088 97.3361 46.9585V45.941L96.2181 45.4558L96.135 45.4112V46.7651H96.1192ZM98.469 47.4285H98.3733C98.1805 47.4281 97.9957 47.3504 97.8595 47.2125C97.7232 47.0746 97.6466 46.8877 97.6463 46.6928V45.8905L97.92 46.0091C97.9289 46.0111 97.9376 46.0142 97.9458 46.0183H97.9749L98.8899 47.2982L98.8067 47.3445C98.7016 47.4011 98.5839 47.4295 98.4648 47.4269L98.469 47.4285ZM97.8127 46.1453V46.6928C97.8129 46.8431 97.872 46.9872 97.9771 47.0936C98.0822 47.1999 98.2246 47.2599 98.3733 47.2604H98.469C98.5253 47.2604 98.5814 47.2522 98.6354 47.236L97.8759 46.1739L97.8127 46.1453ZM95.1418 47.4159H95.0461C94.8534 47.4157 94.6686 47.3382 94.5323 47.2004C94.396 47.0626 94.3194 46.8758 94.3192 46.681V43.7378H94.295V43.6537C94.2978 43.5235 94.3502 43.3995 94.4414 43.3075C94.5325 43.2155 94.6553 43.1627 94.7841 43.1601H95.3664C95.4621 43.1613 95.5554 43.1907 95.6347 43.2448C95.7141 43.2989 95.7761 43.3753 95.8131 43.4645L95.8347 43.5167L95.7232 43.6293C95.6462 43.7159 95.5931 43.8216 95.5695 43.9356C95.5458 44.0496 95.5524 44.1679 95.5885 44.2785L95.6958 44.6039C95.7299 44.7128 95.7822 44.8149 95.8505 44.9058L95.8671 44.9277V46.6801C95.8662 46.875 95.789 47.0615 95.6522 47.1988C95.5154 47.3362 95.3304 47.413 95.1376 47.4126L95.1418 47.4159ZM94.4764 43.5705H94.4888V46.6818C94.4891 46.8321 94.5482 46.9761 94.6533 47.0823C94.7584 47.1886 94.9008 47.2484 95.0495 47.2486H95.1451C95.2938 47.2486 95.4364 47.1889 95.5415 47.0826C95.6467 46.9763 95.7058 46.8321 95.7058 46.6818V44.9807C95.6325 44.8813 95.5763 44.7701 95.5394 44.6519L95.4329 44.329C95.3873 44.1896 95.3791 44.0405 95.4092 43.8968C95.4393 43.7532 95.5066 43.6203 95.6043 43.5116L95.6367 43.4788C95.6082 43.4326 95.5686 43.3944 95.5217 43.3677C95.4747 43.3409 95.4219 43.3265 95.368 43.3258H94.7858C94.7141 43.3254 94.6443 43.3489 94.5871 43.3925C94.5299 43.436 94.4883 43.4974 94.4689 43.5671L94.4764 43.5705ZM93.4516 46.8256C93.2588 46.8252 93.074 46.7475 92.9377 46.6096C92.8015 46.4717 92.7248 46.2848 92.7246 46.0898V44.0044H92.7129V43.9203C92.7155 43.7901 92.7677 43.666 92.8587 43.5738C92.9497 43.4816 93.0724 43.4286 93.2012 43.4258H93.6903C93.8191 43.4286 93.9418 43.4816 94.0328 43.5738C94.1238 43.666 94.176 43.7901 94.1786 43.9203V46.0898C94.178 46.1867 94.1586 46.2825 94.1214 46.3718C94.0841 46.4611 94.0299 46.542 93.9616 46.6101C93.8934 46.6781 93.8126 46.7319 93.7238 46.7683C93.635 46.8047 93.5399 46.823 93.4441 46.8223L93.4516 46.8256ZM92.8901 43.8362V46.0898C92.8901 46.2401 92.9492 46.3843 93.0543 46.4906C93.1595 46.5969 93.3021 46.6566 93.4507 46.6566C93.5994 46.6566 93.742 46.5969 93.8472 46.4906C93.9523 46.3843 94.0114 46.2401 94.0114 46.0898V43.9203C94.0103 43.8342 93.9761 43.752 93.916 43.6911C93.8558 43.6301 93.7746 43.5953 93.6895 43.594H93.2004C93.1289 43.5933 93.0592 43.6163 93.0018 43.6594C92.9444 43.7026 92.9026 43.7634 92.8826 43.8328L92.8901 43.8362ZM99.1877 44.5014L98.8084 44.1381C98.6123 43.9758 98.3807 43.8631 98.1329 43.8093L97.6497 43.7117V43.483C97.6481 43.3536 97.6974 43.2288 97.7868 43.1361C97.8762 43.0434 97.9983 42.9903 98.1263 42.9886H98.7085C98.8344 42.9903 98.9547 43.0416 99.0437 43.1316C99.1327 43.2216 99.1835 43.3432 99.1852 43.4704L99.1877 44.5014ZM97.816 43.5764L98.1671 43.647C98.4441 43.7065 98.7028 43.8331 98.9207 44.0162L99.0213 44.1129V43.4746C99.0202 43.3918 98.9872 43.3126 98.9292 43.254C98.8713 43.1954 98.793 43.162 98.711 43.161H98.1288C98.0449 43.1629 97.9653 43.1984 97.9072 43.2595C97.849 43.3206 97.8172 43.4025 97.8185 43.4872L97.816 43.5764ZM97.5182 43.6764L96.3446 43.4242C96.2541 43.4023 96.1598 43.4023 96.0692 43.4242L95.9628 43.4485L95.9686 43.3375C95.9741 43.2069 96.0289 43.0834 96.1218 42.9924C96.2146 42.9014 96.3384 42.8497 96.4677 42.8481H97.0167C97.1484 42.8503 97.2741 42.9042 97.3672 42.9983C97.4603 43.0925 97.5136 43.2195 97.5157 43.3527L97.5182 43.6764ZM96.2065 43.2417C96.2647 43.2419 96.3228 43.2487 96.3795 43.2619L97.3519 43.4696V43.356C97.3504 43.2673 97.3149 43.1826 97.2528 43.1199C97.1907 43.0571 97.1069 43.0212 97.0192 43.0197H96.4702C96.4013 43.0198 96.3341 43.0415 96.2779 43.0819C96.2217 43.1223 96.1793 43.1793 96.1566 43.245L96.2065 43.2417Z" fill="black"/>
</g>
<defs>
<clipPath id="clip0">
<rect width="152" height="56" fill="white"/>
</clipPath>
</defs>
</svg>
