<svg width="40" height="40" viewBox="0 0 40 40" fill="none" xmlns="http://www.w3.org/2000/svg">
<path d="M6.25 11.25H10.8594C11.0938 11.25 11.3844 11.0984 11.6109 10.8594L13.6375 7.66094C13.6695 7.61018 13.7053 7.56187 13.7445 7.51641C14.4445 6.7 15.3906 6.25 16.4062 6.25H23.5938C24.6094 6.25 25.5555 6.7 26.2555 7.51641C26.2947 7.56187 26.3305 7.61018 26.3625 7.66094L28.3891 10.8641C28.5625 11.0531 28.8062 11.2547 29.0625 11.2547V10.6297C29.0625 10.2982 29.1942 9.98022 29.4286 9.7458C29.663 9.51138 29.981 9.37969 30.3125 9.37969H32.1875C32.519 9.37969 32.837 9.51138 33.0714 9.7458C33.3058 9.98022 33.4375 10.2982 33.4375 10.6297V11.2547H33.75C34.7442 11.2557 35.6975 11.6511 36.4005 12.3542C37.1035 13.0572 37.499 14.0104 37.5 15.0047V30C37.499 30.9942 37.1035 31.9475 36.4005 32.6505C35.6975 33.3535 34.7442 33.749 33.75 33.75H6.25C5.25576 33.749 4.30253 33.3535 3.59949 32.6505C2.89645 31.9475 2.50103 30.9942 2.5 30V15C2.50103 14.0058 2.89645 13.0525 3.59949 12.3495C4.30253 11.6465 5.25576 11.251 6.25 11.25ZM15.2469 27.0547C16.2682 27.8898 17.4917 28.441 18.7939 28.6526C20.0962 28.8642 21.4312 28.7287 22.6644 28.2598C23.8976 27.791 24.9854 27.0053 25.8182 25.982C26.651 24.9587 27.1993 23.734 27.4078 22.4312C27.6747 22.5218 27.9644 22.5195 28.2298 22.4248C28.4952 22.33 28.7208 22.1483 28.87 21.9092C29.0192 21.6701 29.0832 21.3876 29.0516 21.1075C29.02 20.8275 28.8948 20.5663 28.6961 20.3664L27.1336 18.8039C26.8992 18.5697 26.5814 18.4381 26.25 18.4381C25.9186 18.4381 25.6008 18.5697 25.3664 18.8039L23.8039 20.3664C23.6292 20.5412 23.5102 20.7639 23.4621 21.0063C23.4139 21.2487 23.4386 21.4999 23.5332 21.7283C23.6278 21.9566 23.7879 22.1518 23.9933 22.2892C24.1988 22.4265 24.4404 22.4999 24.6875 22.5C24.7398 22.4994 24.7919 22.4957 24.8438 22.4891C24.6346 23.3037 24.2235 24.0526 23.6485 24.6664C23.0735 25.2802 22.3531 25.7393 21.5538 26.0011C20.7545 26.2629 19.9021 26.3191 19.0753 26.1645C18.2485 26.0099 17.4741 25.6494 16.8234 25.1164C16.6963 25.0119 16.5497 24.9335 16.3922 24.8858C16.2346 24.838 16.0692 24.8219 15.9054 24.8383C15.7416 24.8546 15.5826 24.9032 15.4377 24.9812C15.2927 25.0591 15.1645 25.165 15.0606 25.2926C14.9566 25.4202 14.8789 25.5672 14.8318 25.7249C14.7848 25.8827 14.7694 26.0481 14.7865 26.2119C14.8036 26.3756 14.8528 26.5343 14.9314 26.679C15.01 26.8236 15.1164 26.9513 15.2445 27.0547H15.2469ZM11.3039 22.1328L12.8664 23.6953C13.1008 23.9296 13.4186 24.0611 13.75 24.0611C14.0814 24.0611 14.3992 23.9296 14.6336 23.6953L16.1961 22.1328C16.3788 21.9495 16.5002 21.7141 16.5434 21.4589C16.5866 21.2037 16.5495 20.9414 16.4373 20.7082C16.325 20.475 16.1432 20.2823 15.9168 20.1569C15.6904 20.0314 15.4307 19.9793 15.1734 20.0078C15.3823 19.1917 15.7939 18.4416 16.3702 17.8272C16.9464 17.2127 17.6685 16.7538 18.4695 16.493C19.2706 16.2323 20.1245 16.1781 20.952 16.3356C21.7795 16.493 22.5539 16.857 23.2031 17.3938C23.3287 17.5048 23.4753 17.5895 23.6342 17.6428C23.7932 17.6961 23.9612 17.7168 24.1283 17.7038C24.2954 17.6908 24.4582 17.6444 24.607 17.5672C24.7558 17.49 24.8876 17.3837 24.9945 17.2545C25.1013 17.1254 25.1811 16.976 25.2291 16.8154C25.2771 16.6548 25.2923 16.4862 25.2738 16.3196C25.2553 16.153 25.2035 15.9918 25.1214 15.8456C25.0393 15.6995 24.9287 15.5713 24.7961 15.4688C23.7763 14.6255 22.5516 14.067 21.2462 13.8501C19.9408 13.6332 18.6013 13.7655 17.3636 14.2336C16.1258 14.7017 15.034 15.489 14.1989 16.5154C13.3638 17.5419 12.8151 18.7711 12.6086 20.0781C12.3416 19.983 12.0502 19.9814 11.7821 20.0736C11.5141 20.1659 11.2854 20.3465 11.1335 20.5859C10.9816 20.8252 10.9156 21.1091 10.9463 21.3909C10.977 21.6727 11.1025 21.9357 11.3023 22.1367L11.3039 22.1328Z" fill="white"/>
</svg>
