<svg width="87" height="32" viewBox="0 0 87 32" fill="none" xmlns="http://www.w3.org/2000/svg">
<g clip-path="url(#clip0)">
<path d="M24.5663 2.75805C24.5663 4.55518 23.2541 5.31151 21.942 5.31151H15.29V29.0053C15.29 30.7078 14.2126 31.7957 12.3859 31.7957C10.5591 31.7957 9.4817 30.7078 9.4817 29.0529V5.31151H2.77925C1.46713 5.31151 0.202148 4.55518 0.202148 2.75805C0.202148 0.960915 1.46713 0.204102 2.77925 0.204102H21.9439C23.2561 0.204102 24.5663 0.960915 24.5663 2.75805Z" fill="#5446F6"/>
<path d="M12.3851 32.0024C11.4444 32.0024 10.6569 31.7232 10.108 31.1951C9.55902 30.667 9.27765 29.9328 9.27765 29.0554V5.51585H2.77944C1.49732 5.51585 0 4.79363 0 2.75817C0 0.722697 1.49732 0 2.77944 0H21.9441C22.6925 0 23.3791 0.231128 23.8775 0.650139C24.4617 1.14171 24.7707 1.87017 24.7707 2.75817C24.7707 3.64616 24.4617 4.3727 23.8775 4.86571C23.3791 5.2852 22.6925 5.51585 21.9441 5.51585H15.4926V29.0054C15.4926 30.8525 14.3019 32.0024 12.3851 32.0024ZM2.77944 0.408439C1.02836 0.408439 0.40468 1.62222 0.40468 2.75817C0.40468 3.89411 1.02836 5.10741 2.77944 5.10741H9.6828V29.053C9.6828 29.8161 9.92656 30.4537 10.3874 30.8972C10.8597 31.3513 11.5505 31.5916 12.387 31.5916C14.0795 31.5916 15.0898 30.6248 15.0898 29.0054V5.10741H21.9456C23.063 5.10741 24.3674 4.49235 24.3674 2.75817C24.3674 1.02398 23.0615 0.408439 21.9441 0.408439H2.77944Z" fill="black"/>
<path d="M10.156 9.65507C10.2503 9.70601 10.3551 9.73394 10.462 9.73661C10.5689 9.73928 10.6749 9.71662 10.7716 9.67045C10.9034 9.61646 11.0209 9.53212 11.1148 9.42417C11.2086 9.31621 11.2761 9.18762 11.312 9.04866C10.8616 7.57876 10.6816 6.03245 10.7407 4.47174C10.6671 4.42586 10.5855 4.39485 10.5002 4.38044C10.305 4.36554 10.1098 4.33527 9.89939 4.31989H9.85512C9.75009 4.31798 9.64817 4.35587 9.56946 4.42609C9.43425 4.54718 9.35903 4.72929 9.34379 4.9412C9.24007 6.4087 9.40303 7.88297 9.82465 9.29132C9.8513 9.37213 9.89461 9.44632 9.95172 9.50902C10.0088 9.57172 10.0785 9.62149 10.156 9.65507Z" fill="white"/>
<path d="M12.0635 9.45795C12.2287 9.54877 12.4387 9.53388 12.6348 9.45795L12.74 9.38203C13.1157 9.21529 13.3409 8.83665 13.2356 8.50317C12.7975 7.08277 12.6343 5.59055 12.7548 4.10788C12.77 3.88012 12.5748 3.66821 12.3196 3.63794C12.1092 3.62256 11.884 3.59229 11.6736 3.57739H11.6288C11.5173 3.58131 11.4106 3.62468 11.3275 3.69992C11.2244 3.79416 11.16 3.92393 11.147 4.06368C11.0271 5.77624 11.2075 7.44363 11.7183 9.05C11.7451 9.13826 11.7895 9.22002 11.8489 9.2902C11.9083 9.36039 11.9813 9.41749 12.0635 9.45795Z" fill="white"/>
<path d="M14.8711 6.42699C14.988 6.61044 15.171 6.74086 15.3814 6.79075L15.5467 6.83591C15.6512 6.86055 15.7595 6.86385 15.8653 6.84562C15.9711 6.82738 16.0722 6.78797 16.1627 6.72972C16.3445 6.61174 16.4738 6.42702 16.5231 6.21461L17.0187 3.94032C17.035 3.87633 17.0381 3.80963 17.0277 3.7444C17.0173 3.67916 16.9936 3.6168 16.9583 3.56119C16.9242 3.50336 16.8786 3.4533 16.8243 3.41418C16.7701 3.37505 16.7084 3.34772 16.6431 3.33391L15.8623 3.15179C15.829 3.14009 15.7937 3.13535 15.7585 3.13786C15.6632 3.13754 15.5696 3.16381 15.4881 3.21378C15.4308 3.24819 15.3812 3.29423 15.3424 3.34898C15.3037 3.40374 15.2766 3.46602 15.2629 3.53188L14.7673 5.80521C14.7429 5.91062 14.7395 6.01987 14.7573 6.12662C14.7752 6.23336 14.8138 6.33546 14.8711 6.42699Z" fill="white"/>
<path d="M8.78908 9.41238L8.87954 9.3821C9.13472 9.29129 9.29993 9.03373 9.31468 8.7608C9.04193 7.6357 8.92576 6.47774 8.96952 5.3203C8.93803 5.27067 8.89612 5.22864 8.84676 5.19717C8.7974 5.1657 8.74179 5.14556 8.68386 5.13818C8.51866 5.12329 8.33822 5.09301 8.17301 5.07764H8.1254C8.03777 5.07825 7.95328 5.11066 7.88736 5.16893C7.7669 5.25975 7.69216 5.42649 7.67692 5.60813C7.58756 6.71379 7.68921 7.82672 7.97734 8.89726C8.00134 9.00271 8.04723 9.10182 8.11199 9.18805C8.17674 9.27427 8.25888 9.34566 8.35298 9.39748C8.5039 9.45803 8.65387 9.4734 8.78908 9.41238Z" fill="white"/>
<path d="M16.3427 7.04811C16.1533 7.16761 15.9343 7.23058 15.7109 7.22975C15.6252 7.22638 15.5399 7.21626 15.4557 7.19947L15.2905 7.1543C15.1368 7.12087 14.9912 7.0568 14.8623 6.96585C14.7334 6.87489 14.6238 6.75888 14.5399 6.62462C14.456 6.49036 14.3995 6.34055 14.3738 6.18397C14.348 6.02739 14.3534 5.86719 14.3898 5.71276L14.8854 3.43943C14.9103 3.31843 14.9615 3.20452 15.0353 3.10595C14.9154 2.72682 14.5116 1.75666 13.9994 1.83258C13.5937 1.89313 13.3085 2.04497 13.1424 2.27226C12.9472 2.54519 12.9043 2.92384 13.0072 3.45433L14.1631 7.3345C14.1719 7.35833 14.1757 7.38372 14.1743 7.4091C14.1729 7.43448 14.1664 7.4593 14.1552 7.48204C14.1439 7.50478 14.1282 7.52495 14.1089 7.54131C14.0897 7.55767 14.0673 7.56987 14.0432 7.57716C14.0249 7.58759 14.0041 7.59274 13.9832 7.59206C13.9434 7.58887 13.9053 7.57436 13.8734 7.5502C13.8414 7.52604 13.8169 7.49324 13.8027 7.45559L13.0838 5.04532C13.0821 6.19054 13.2491 7.32965 13.5794 8.42527C13.7447 8.95384 13.4442 9.53046 12.8739 9.77408L12.7839 9.82213C12.6407 9.88125 12.4877 9.91208 12.333 9.91295C12.1833 9.91357 12.0351 9.88264 11.8979 9.82213C11.7517 9.75766 11.6229 9.6588 11.5222 9.53382C11.382 9.76623 11.1713 9.94686 10.9214 10.0489C10.7789 10.1094 10.6257 10.1403 10.471 10.1398C10.3049 10.1426 10.1405 10.1064 9.99065 10.034C9.73499 9.89757 9.53979 9.68519 9.46695 9.42763V9.39736C9.34662 9.55831 9.18587 9.68389 9.00133 9.76111L8.91134 9.79138C8.80558 9.83323 8.6926 9.85332 8.57903 9.85048H8.51904C8.77423 10.4718 9.1194 11.0628 9.58502 11.5481C10.2758 12.2757 11.1771 12.6394 12.2583 12.6394C16.0875 12.6394 17.0035 9.39591 17.0935 8.93942C17.0035 8.71166 16.7031 7.90872 16.4027 6.9991C16.3879 7.01784 16.3579 7.03273 16.3427 7.04811Z" fill="white"/>
<path d="M16.7185 6.68437C16.7948 6.56316 16.8506 6.43001 16.8837 6.29034L17.3774 4.01654C17.4028 3.90291 17.4053 3.78526 17.3846 3.67065C17.3639 3.55605 17.3205 3.44684 17.2569 3.34958C17.1308 3.14913 16.9309 3.00741 16.7013 2.95556L15.9372 2.7869C15.7391 2.74361 15.5324 2.77042 15.3516 2.86282C15.1864 2.40825 14.7212 1.36217 13.9552 1.46932C13.4444 1.54524 13.0692 1.74226 12.844 2.06036C12.6188 2.37846 12.5436 2.80324 12.6188 3.34862C12.5381 3.31256 12.4514 3.29202 12.3632 3.28808C12.1532 3.27318 11.928 3.24291 11.7176 3.22753C11.602 3.21709 11.4856 3.23007 11.3751 3.26569C11.2646 3.30132 11.1623 3.35887 11.0742 3.43498C10.9861 3.51108 10.9139 3.6042 10.8619 3.70886C10.8099 3.81351 10.7792 3.9276 10.7716 4.04441V4.05979C10.7059 4.02787 10.634 4.01144 10.5611 4.01173C10.3512 3.98146 10.156 3.96657 9.94555 3.95119C9.83485 3.93894 9.72284 3.9506 9.61695 3.9854C9.51106 4.0202 9.41372 4.07733 9.33139 4.15301C9.12566 4.3355 8.99674 4.5904 8.97098 4.86561C8.89219 4.81965 8.80569 4.7887 8.7158 4.77431C8.55059 4.75942 8.37015 4.72915 8.20495 4.71377C8.10591 4.70002 8.00511 4.70778 7.90929 4.73654C7.81347 4.76529 7.72485 4.81438 7.64935 4.88051C7.43891 5.04725 7.31894 5.30481 7.28894 5.59312C7.20013 6.73929 7.30167 7.89238 7.58936 9.00478C7.65159 9.27611 7.81228 9.51407 8.03974 9.67174C8.31016 10.4444 8.7158 11.2022 9.30139 11.8086C10.0822 12.612 11.0582 13.006 12.2446 13.006H12.2598C16.6147 13.006 17.4854 8.98941 17.5007 8.94424L17.5154 8.88321L17.4854 8.85294C17.484 8.8366 17.0917 7.80589 16.7185 6.68437ZM15.4868 3.2136C15.5687 3.16337 15.6628 3.13709 15.7587 3.13768C15.7944 3.13528 15.8302 3.14035 15.8639 3.15257L16.6447 3.33469C16.7099 3.3485 16.7716 3.37583 16.8259 3.41495C16.8801 3.45408 16.9257 3.50414 16.9598 3.56197C16.9948 3.61756 17.0181 3.67981 17.0283 3.74486C17.0384 3.80992 17.0352 3.87639 17.0189 3.94014L16.5233 6.21346C16.4739 6.42587 16.3447 6.61059 16.1629 6.72858C16.0724 6.78683 15.9713 6.82623 15.8655 6.84447C15.7597 6.86271 15.6513 6.85941 15.5468 6.83477L15.3816 6.7896C15.1712 6.73971 14.9882 6.60929 14.8712 6.42585C14.8137 6.33442 14.7748 6.23237 14.7567 6.12562C14.7387 6.01887 14.7418 5.90957 14.766 5.80406L15.2616 3.5317C15.2753 3.46584 15.3024 3.40356 15.3411 3.3488C15.3799 3.29405 15.4295 3.24801 15.4868 3.2136ZM11.1467 4.06219C11.1601 3.92296 11.2244 3.79376 11.3272 3.69988C11.4102 3.62537 11.5165 3.58253 11.6276 3.57879H11.6723C11.8828 3.59369 12.108 3.62396 12.3184 3.63933C12.5736 3.66961 12.7688 3.87959 12.7536 4.10928C12.6333 5.59216 12.7968 7.08456 13.2354 8.50504C13.3406 8.83852 13.1154 9.21717 12.7397 9.38391L12.6345 9.45983C12.4393 9.53575 12.2294 9.55065 12.0632 9.45983C11.9808 9.41926 11.9076 9.36196 11.8481 9.29151C11.7886 9.22107 11.7442 9.139 11.7176 9.05043C11.2072 7.44214 11.0268 5.77475 11.1467 4.06219ZM9.34472 4.94105C9.35995 4.72915 9.43517 4.54703 9.57039 4.42594C9.64909 4.35573 9.75101 4.31784 9.85604 4.31975H9.9027C10.1131 4.33512 10.3083 4.3654 10.5035 4.38029C10.5888 4.3947 10.6704 4.42571 10.744 4.47159C10.684 6.03231 10.8639 7.57861 11.3153 9.04851C11.2794 9.18747 11.2119 9.31606 11.1181 9.42402C11.0243 9.53197 10.9067 9.61631 10.7749 9.6703C10.6782 9.71647 10.5722 9.73913 10.4653 9.73646C10.3584 9.73379 10.2536 9.70586 10.1593 9.65492C10.0819 9.62123 10.0125 9.57141 9.95556 9.50872C9.89861 9.44603 9.85545 9.37189 9.8289 9.29117C9.40617 7.88304 9.24207 6.40876 9.34472 4.94105ZM7.97833 8.89715C7.6902 7.8266 7.58855 6.71368 7.67791 5.60801C7.69315 5.42638 7.76789 5.25964 7.88834 5.16882C7.95427 5.11054 8.03876 5.07814 8.12639 5.07752H8.174C8.33921 5.0929 8.51965 5.12557 8.68485 5.13807C8.74278 5.14545 8.79839 5.16558 8.84775 5.19705C8.89711 5.22852 8.93902 5.27056 8.97051 5.32018C8.92675 6.47763 9.04292 7.63558 9.31568 8.76068C9.30092 9.03361 9.13571 9.28925 8.88052 9.38199L8.79007 9.41226C8.65486 9.47329 8.50441 9.46031 8.35492 9.39736C8.26064 9.34564 8.17832 9.27431 8.1134 9.18807C8.04848 9.10184 8.00244 9.00268 7.97833 8.89715ZM12.2584 12.6409C11.1772 12.6409 10.276 12.2771 9.58514 11.5496C9.11952 11.0643 8.77578 10.4732 8.51917 9.85193H8.57916C8.69218 9.85406 8.8045 9.83348 8.90957 9.79139L8.99955 9.76112C9.18409 9.6839 9.34484 9.55832 9.46517 9.39736V9.42764C9.53992 9.68519 9.73511 9.89758 9.98887 10.034C10.1387 10.1064 10.3032 10.1426 10.4693 10.1398C10.6239 10.1403 10.7771 10.1095 10.9196 10.0489C11.1699 9.94704 11.3809 9.76639 11.5214 9.53383C11.622 9.65881 11.7508 9.75767 11.8971 9.82214C12.0343 9.88264 12.1825 9.91358 12.3322 9.91296C12.4869 9.91209 12.6399 9.88126 12.7831 9.82214L12.8731 9.77409C13.4444 9.53383 13.7438 8.95721 13.5786 8.42528C13.2486 7.32961 13.0819 6.1905 13.084 5.04533L13.8067 7.45704C13.8209 7.49469 13.8454 7.52749 13.8773 7.55165C13.9092 7.57581 13.9473 7.59032 13.9871 7.59351C14.0081 7.59419 14.0288 7.58904 14.0471 7.57861C14.0712 7.57132 14.0936 7.55912 14.1129 7.54276C14.1321 7.5264 14.1479 7.50623 14.1591 7.48349C14.1704 7.46075 14.1769 7.43593 14.1782 7.41055C14.1796 7.38517 14.1758 7.35978 14.1671 7.33595L13.0092 3.45578C12.9021 2.92529 12.9497 2.54664 13.1444 2.27371C13.3096 2.04642 13.5948 1.89458 14.0014 1.83403C14.5118 1.75811 14.9174 2.72828 15.0374 3.1074C14.9635 3.20597 14.9123 3.31988 14.8874 3.44088L14.3918 5.71421C14.3554 5.86864 14.35 6.02884 14.3758 6.18542C14.4016 6.342 14.4581 6.49181 14.542 6.62607C14.6259 6.76033 14.7355 6.87634 14.8643 6.96729C14.9932 7.05825 15.1388 7.12232 15.2926 7.15575L15.4578 7.20092C15.5419 7.21771 15.6272 7.22783 15.713 7.2312C15.936 7.23185 16.1547 7.16889 16.3438 7.04956C16.359 7.03418 16.3914 7.01929 16.4038 7.00151C16.7042 7.91113 17.0046 8.71407 17.0946 8.94183C17.0036 9.39736 16.0876 12.6409 12.2584 12.6409Z" fill="black"/>
<path d="M29.6532 23.5833C29.6479 24.4059 29.3287 25.1948 28.7619 25.786L29.7436 28.6537C29.9631 29.3182 29.666 30.0222 28.9171 30.2437C28.2844 30.4393 27.5998 30.1913 27.3674 29.5008L26.4233 26.7244H24.5666V29.1616C24.5666 29.9828 23.9729 30.3091 23.2754 30.3091C22.6165 30.3091 22.0742 29.8656 22.0742 29.1357V21.7453C22.0742 21.0154 22.6036 20.4421 23.2645 20.4421H26.5314C28.4777 20.4421 29.6532 21.9279 29.6532 23.5833ZM27.1346 23.5703C27.13 23.3794 27.052 23.1977 26.917 23.0639C26.782 22.9301 26.6007 22.8546 26.4114 22.8534H24.5518V24.3141H26.4114C26.8118 24.3141 27.1346 23.948 27.1346 23.5703Z" fill="#5446F6"/>
<path d="M28.4909 30.5267C28.1974 30.5317 27.9101 30.4414 27.6713 30.2692C27.4325 30.0969 27.2548 29.8518 27.1645 29.5699L26.2713 26.9406H24.7788V29.1615C24.7788 30.0024 24.2022 30.5252 23.2733 30.5252C22.453 30.5252 21.8579 29.9409 21.8579 29.1356V21.7452C21.8579 20.8933 22.474 20.2258 23.2605 20.2258H26.5274C27.5115 20.2258 28.359 20.5776 28.9779 21.2436C29.5492 21.861 29.8672 22.6918 29.8672 23.5832C29.864 24.4161 29.5577 25.2188 29.0065 25.8387L29.9463 28.583C30.0119 28.7703 30.0391 28.969 30.0263 29.1673C30.0135 29.3655 29.9611 29.5591 29.872 29.7362C29.6949 30.0779 29.3773 30.3311 28.9774 30.4493C28.8199 30.4993 28.656 30.5254 28.4909 30.5267ZM24.3488 26.5081H26.576L27.5682 29.4306C27.7158 29.8683 28.1804 30.2446 28.8536 30.037C29.1474 29.95 29.3669 29.7775 29.4911 29.5378C29.5534 29.4119 29.5898 29.2747 29.598 29.1342C29.6062 28.9938 29.586 28.8532 29.5387 28.7209L28.518 25.7301L28.6108 25.634C29.1366 25.0822 29.4335 24.3483 29.4407 23.5827C29.4407 22.1292 28.4409 20.6578 26.5293 20.6578H23.2605C22.7144 20.6578 22.2864 21.135 22.2864 21.7447V29.1351C22.2864 29.6987 22.692 30.0923 23.2733 30.0923C23.6756 30.0923 24.3503 29.9712 24.3503 29.161L24.3488 26.5081ZM26.4098 24.5293H24.3374V22.6371H26.4113C26.9197 22.6371 27.3487 23.0642 27.3487 23.5702C27.3487 24.0762 26.9107 24.5293 26.4113 24.5293H26.4098ZM24.7645 24.0969H26.4098C26.7012 24.0969 26.9188 23.8186 26.9188 23.5683C26.9138 23.4349 26.8582 23.3085 26.7635 23.2153C26.6687 23.1221 26.5421 23.0692 26.4098 23.0676H24.7659L24.7645 24.0969Z" fill="black"/>
<path d="M38.5897 30.2826C37.9708 30.4268 37.2724 30.0611 37.1043 29.4095L36.8072 28.054H33.863L33.5645 29.4076C33.3836 30.0721 32.6733 30.4114 32.0791 30.2807C31.4983 30.1245 31.0074 29.5248 31.1236 28.8603L32.7766 21.4695C32.8928 20.9615 33.4222 20.4402 34.0421 20.4402H36.6249C37.2581 20.4402 37.7746 20.9481 37.8908 21.4695L39.5438 28.8473C39.6742 29.5008 39.1577 30.1394 38.5897 30.2826ZM35.6194 22.8793H35.0509L34.3925 25.6182H36.2783L35.6194 22.8793Z" fill="#5446F6"/>
<path d="M38.3174 30.53C37.6699 30.53 37.0591 30.0932 36.8972 29.4637V29.456L36.6373 28.2701H34.035L33.7726 29.4666C33.7211 29.6504 33.6334 29.8217 33.5146 29.9704C33.3958 30.119 33.2484 30.2419 33.0813 30.3315C32.762 30.5085 32.3908 30.5652 32.0339 30.4915L32.0239 30.4891C31.3798 30.3157 30.7713 29.629 30.9127 28.8217V28.8121L32.5657 21.4213C32.6976 20.8447 33.2989 20.2234 34.0416 20.2234H36.6244C37.3805 20.2234 37.968 20.8327 38.1003 21.4218L39.7538 28.8064C39.91 29.5949 39.2925 30.3277 38.6402 30.4925H38.6359C38.5315 30.517 38.4246 30.5295 38.3174 30.53ZM37.3129 29.3594C37.4462 29.8693 38.007 30.1955 38.5398 30.0735C39.002 29.9553 39.4396 29.4277 39.3358 28.8948L37.6833 21.5193C37.5909 21.1051 37.1596 20.6583 36.6263 20.6583H34.0435C33.5293 20.6583 33.0823 21.1037 32.9871 21.5203L31.335 28.9044C31.2398 29.4661 31.6726 29.9466 32.1311 30.0725C32.6014 30.173 33.2042 29.9106 33.3579 29.357L33.6912 27.8377H36.9801L37.3129 29.3594ZM36.5511 25.8334H34.1197L34.8814 22.662H35.786L36.5511 25.8334ZM34.6653 25.401H36.006L35.4513 23.0945H35.22L34.6653 25.401Z" fill="black"/>
<path d="M42.309 20.3115C42.7993 20.3115 43.1226 20.4941 43.3564 20.792L46.8319 25.2608V21.4585C46.8319 20.8593 47.308 20.3115 48.0588 20.3115C48.8462 20.3115 49.3242 20.8593 49.3242 21.4585V29.1468C49.3242 29.7465 48.8481 30.3072 48.0588 30.3072C47.6193 30.3072 47.297 30.1376 47.0513 29.8267L43.5759 25.369V29.1487C43.5759 29.7484 43.0998 30.3092 42.3104 30.3092C41.561 30.3092 41.0835 29.7484 41.0835 29.1487V21.4604C41.0821 20.8593 41.5596 20.3115 42.309 20.3115Z" fill="#5446F6"/>
<path d="M48.0562 30.5254C47.5696 30.5254 47.1745 30.3332 46.8807 29.9608L43.789 25.996V29.1511C43.789 29.8185 43.2705 30.5278 42.3093 30.5278C42.1159 30.5313 41.9238 30.4961 41.7441 30.4243C41.5643 30.3525 41.4004 30.2454 41.2619 30.1093C41.0103 29.8548 40.8684 29.5105 40.8667 29.1511V21.4628C40.8663 21.2854 40.9012 21.1098 40.9692 20.9462C41.0373 20.7826 41.1371 20.6344 41.2628 20.5105C41.544 20.2401 41.9195 20.0924 42.3078 20.0996C42.8315 20.0996 43.2277 20.2846 43.5224 20.6652L46.6136 24.6429V21.4585C46.6133 21.2811 46.6481 21.1054 46.7162 20.9419C46.7842 20.7783 46.884 20.6301 47.0098 20.5061C47.2914 20.2349 47.668 20.0872 48.0572 20.0953C48.9008 20.0953 49.5369 20.6815 49.5369 21.4585V29.1468C49.5359 29.8161 49.017 30.5254 48.0562 30.5254ZM43.3605 24.7467L47.2169 29.696C47.4306 29.9685 47.6977 30.0958 48.0562 30.0958C48.5656 30.0958 49.1074 29.7647 49.1074 29.1516V21.4633C49.1074 21.0011 48.7461 20.5326 48.0562 20.5326C47.3983 20.5326 47.0436 21.0131 47.0436 21.4633V25.8956L43.1872 20.9323C42.9758 20.6594 42.6968 20.5326 42.3097 20.5326C41.6518 20.5326 41.2971 21.0131 41.2971 21.4633V29.1516C41.2971 29.6095 41.6518 30.0958 42.3097 30.0958C42.8192 30.0958 43.361 29.7647 43.361 29.1516L43.3605 24.7467Z" fill="black"/>
<path d="M50.8584 28.3274C50.8589 28.1721 50.8851 28.018 50.936 27.8714C51.1293 27.2981 51.6073 27.0372 52.111 27.0372C52.3672 27.0389 52.6193 27.1014 52.847 27.2198C53.4926 27.5326 54.242 27.7282 55.3137 27.7282C56.6696 27.7282 57.0186 27.2198 57.0186 26.7503C57.0186 26.0598 56.5663 25.7206 55.3137 25.7206C52.7052 25.7206 51.026 24.2219 51.026 22.1105C51.026 20.1942 52.3952 18.5518 55.3137 18.5518C56.6567 18.5518 57.806 18.8516 58.6716 19.3206C58.8792 19.4364 59.0522 19.6063 59.1726 19.8126C59.2929 20.019 59.3562 20.2541 59.3557 20.4935C59.3529 20.6959 59.309 20.8956 59.2267 21.0802C59.0072 21.5492 58.5811 21.8361 58.1288 21.8361C57.931 21.8329 57.7366 21.7836 57.5609 21.6919C56.9795 21.3921 56.2954 21.1571 55.3008 21.1571C54.2534 21.1571 53.8026 21.6266 53.8026 22.122C53.8026 22.6823 54.203 23.1123 55.3137 23.1123C58.1703 23.1123 59.8209 24.5058 59.8209 26.7359C59.8209 28.4956 58.583 30.3335 55.417 30.3335H54.978C53.9306 30.3335 52.589 30.0856 51.8915 29.7339C51.3492 29.4749 50.8584 28.9665 50.8584 28.3274Z" fill="#5446F6"/>
<path d="M55.4174 30.5511H54.9784C53.8672 30.5511 52.4989 30.2835 51.7962 29.9289C51.2411 29.6622 50.6445 29.1 50.6445 28.3273C50.6451 28.1488 50.675 27.9717 50.7331 27.8031C50.9407 27.1875 51.4558 26.8209 52.1138 26.8209C52.4031 26.8227 52.688 26.893 52.9455 27.0261C53.6377 27.3624 54.37 27.5119 55.3164 27.5119C56.5486 27.5119 56.8071 27.0977 56.8071 26.7503C56.8071 26.3567 56.6919 25.9367 55.3164 25.9367C53.9967 25.9367 52.8693 25.5687 52.0557 24.8719C51.2554 24.1867 50.8145 23.206 50.8145 22.1104C50.8145 21.06 51.212 20.1162 51.9338 19.4526C52.7289 18.7218 53.8986 18.3354 55.3141 18.3354C56.6181 18.3354 57.8145 18.6103 58.7734 19.1302C59.0154 19.2642 59.2172 19.4616 59.3575 19.7016C59.4978 19.9416 59.5713 20.2153 59.5704 20.4939C59.5675 20.7275 59.517 20.958 59.4218 21.171C59.1671 21.7154 58.672 22.0527 58.1292 22.0527C57.8981 22.0505 57.6708 21.9936 57.4655 21.8865C57.0028 21.6462 56.3405 21.3747 55.3012 21.3747C54.5214 21.3747 54.0158 21.6688 54.0158 22.1234C54.0158 22.637 54.4523 22.8975 55.3126 22.8975C56.7528 22.8975 57.9488 23.2516 58.771 23.9215C59.5932 24.5913 60.0355 25.5682 60.0355 26.7373C60.0355 28.4945 58.8257 30.5511 55.4174 30.5511ZM52.1114 27.2534C51.889 27.2534 51.3496 27.3206 51.1387 27.941C51.0959 28.0646 51.0737 28.1945 51.073 28.3254C51.073 28.8967 51.5434 29.3263 51.9838 29.5382C52.6394 29.8688 53.9248 30.1148 54.9784 30.1148H55.4174C56.8042 30.1148 57.925 29.7415 58.6582 29.0356C59.2699 28.4465 59.607 27.6286 59.607 26.7334C59.607 24.5999 58.0021 23.3261 55.3141 23.3261C53.8129 23.3261 53.5887 22.5702 53.5887 22.1195C53.5887 21.5746 54.0372 20.9384 55.3026 20.9384C56.4334 20.9384 57.1566 21.2368 57.6603 21.4968C57.8056 21.5733 57.9667 21.6142 58.1306 21.6164C58.5058 21.6164 58.8524 21.3762 59.0352 20.9845C59.1041 20.8288 59.141 20.6606 59.1438 20.4901C59.1448 20.2895 59.0923 20.0924 58.9918 19.9194C58.8913 19.7464 58.7464 19.6039 58.5725 19.5069C57.6769 19.0211 56.551 18.7641 55.3174 18.7641C54.0081 18.7641 52.9369 19.1115 52.2228 19.7683C51.5824 20.3575 51.2435 21.1662 51.2435 22.1065C51.2435 24.1367 52.8807 25.5004 55.3169 25.5004C56.2106 25.5004 57.2361 25.6446 57.2361 26.7464C57.2361 27.1923 56.9866 27.9405 55.3169 27.9405C54.3171 27.9405 53.5035 27.7718 52.7574 27.4119C52.5573 27.3085 52.3358 27.2542 52.1109 27.2534H52.1114Z" fill="black"/>
<path d="M61.2798 28.9795C61.2798 28.3409 61.7449 27.7542 62.3905 27.7542H63.0094L63.0223 22.8793H62.3895C61.744 22.8793 61.2788 22.3061 61.2788 21.667C61.2788 21.0279 61.744 20.4421 62.3895 20.4421H66.2383C66.8967 20.4421 67.3614 21.0284 67.3614 21.667C67.3614 22.3056 66.8967 22.8793 66.2383 22.8793H65.5794L65.5665 27.7542H66.2383C66.8967 27.7542 67.3614 28.3409 67.3614 28.9795C67.3614 29.6181 66.8967 30.1914 66.2383 30.1914H62.3895C61.7449 30.1914 61.2798 29.6181 61.2798 28.9795Z" fill="#5446F6"/>
<path d="M66.2396 30.4075H62.3909C61.6606 30.4075 61.0659 29.767 61.0659 28.9794C61.0659 28.1846 61.6606 27.5378 62.3909 27.5378H62.797L62.8089 23.0955H62.3909C61.6606 23.0955 61.0659 22.4545 61.0659 21.6669C61.0659 20.8721 61.6606 20.2253 62.3909 20.2253H66.2396C66.9771 20.2253 67.577 20.8716 67.577 21.6669C67.577 22.4621 66.9895 23.0955 66.2396 23.0955H65.7964L65.7845 27.5378H66.2415C66.979 27.5378 67.5789 28.1846 67.5789 28.9794C67.5789 29.7742 66.9895 30.4075 66.2396 30.4075ZM62.3909 27.9703C61.8372 27.9703 61.4944 28.4941 61.4944 28.9794C61.4944 29.5286 61.8967 29.975 62.3909 29.975H66.2396C66.6862 29.975 67.1485 29.6026 67.1485 28.9794C67.1485 28.4941 66.8009 27.9703 66.2396 27.9703H65.3531L65.3669 22.663H66.2396C66.6862 22.663 67.1485 22.2906 67.1485 21.6669C67.1485 21.1816 66.8009 20.6578 66.2396 20.6578H62.3909C61.8372 20.6578 61.4944 21.1811 61.4944 21.6669C61.4944 22.2161 61.8967 22.663 62.3909 22.663H63.2383L63.2255 27.9703H62.3909Z" fill="black"/>
<path d="M73.3031 27.9886C73.8325 27.9886 74.1944 27.9237 74.4138 27.7541V26.2683H74.1168C73.4712 26.2683 72.9418 25.8902 72.9418 25.1603C72.9418 24.4304 73.4712 24.0003 74.1168 24.0003H75.7569C76.4544 24.0003 76.8676 24.4808 76.8676 25.1862V28.4581C76.8704 28.6101 76.8407 28.761 76.7805 28.9004C76.7203 29.0398 76.631 29.1644 76.5186 29.2658C75.5503 30.0611 74.5043 30.3479 73.2517 30.3479C70.9398 30.3479 68.9121 28.6272 68.9121 26.3856V24.4044C68.9121 22.0979 70.9012 20.272 73.2517 20.272C74.2991 20.272 75.1627 20.5603 75.8988 20.9365C76.5705 21.2758 76.79 22.0835 76.4025 22.6962C76.2551 22.9374 76.0245 23.1151 75.7551 23.1949C75.4856 23.2748 75.1965 23.2512 74.9433 23.1286C74.2586 22.8029 73.8716 22.6337 73.3031 22.6337C72.2957 22.6337 71.3921 23.4415 71.3921 24.4323V26.3616C71.3921 27.3111 72.3219 27.9886 73.3031 27.9886Z" fill="#5446F6"/>
<path d="M73.2516 30.5643C72.0832 30.5711 70.9526 30.1462 70.0732 29.3698C69.1862 28.5779 68.6978 27.5183 68.6978 26.3858V24.4046C68.6978 22.0068 70.7407 20.0564 73.2516 20.0564C74.1962 20.0564 75.0941 20.2813 75.9958 20.7445C76.1803 20.8347 76.3436 20.9635 76.4749 21.1223C76.6063 21.2811 76.7026 21.4663 76.7575 21.6656C76.8098 21.8585 76.8214 22.0603 76.7915 22.2579C76.7617 22.4556 76.6911 22.6447 76.5842 22.8131C76.4074 23.0968 76.1338 23.3053 75.815 23.3993C75.4963 23.4934 75.1545 23.4664 74.8541 23.3234C74.1976 23.0106 73.831 22.8482 73.304 22.8482C72.3994 22.8482 71.6072 23.5877 71.6072 24.4305V26.3598C71.6072 27.0393 72.2556 27.7725 73.304 27.7725C73.7324 27.7725 74.0181 27.7288 74.2004 27.6356V26.4823H74.1176C73.2863 26.4823 72.7284 25.9499 72.7284 25.158C72.7284 24.3479 73.2997 23.7818 74.1176 23.7818H75.7577C76.55 23.7818 77.0827 24.3455 77.0827 25.184V28.4558C77.0851 28.6386 77.0487 28.8198 76.9759 28.9872C76.9032 29.1547 76.7958 29.3044 76.6609 29.4265L76.6547 29.4317C75.7016 30.2155 74.6513 30.5643 73.2516 30.5643ZM73.2516 20.4889C70.9768 20.4889 69.1262 22.2451 69.1262 24.4046V26.3858C69.1262 27.3948 69.5633 28.3371 70.3569 29.0454C71.1301 29.7359 72.1851 30.1319 73.2516 30.1319C74.5451 30.1319 75.5107 29.8138 76.3805 29.1012C76.4692 29.0202 76.5396 28.9208 76.5866 28.8098C76.6337 28.6989 76.6565 28.5789 76.6533 28.4582V25.1864C76.6533 24.579 76.32 24.2167 75.7568 24.2167H74.1167C73.6406 24.2167 73.1559 24.5084 73.1559 25.1604C73.1559 25.8125 73.652 26.0523 74.1167 26.0523H74.628V27.8609L74.5437 27.9258C74.2938 28.118 73.911 28.205 73.303 28.205C72.1309 28.205 71.1777 27.3771 71.1777 26.3598V24.4305C71.1777 23.3383 72.1509 22.4157 73.303 22.4157C73.9219 22.4157 74.3423 22.6022 75.0346 22.9313C75.2404 23.0317 75.4759 23.0514 75.6953 22.9865C75.9147 22.9216 76.1024 22.7768 76.2219 22.5801C76.2973 22.4632 76.3472 22.3316 76.3682 22.1938C76.3892 22.056 76.3809 21.9153 76.3438 21.781C76.3046 21.6401 76.236 21.5092 76.1428 21.3971C76.0495 21.285 75.9337 21.1942 75.803 21.1308C74.9612 20.6984 74.1276 20.4889 73.2516 20.4889Z" fill="black"/>
<path d="M79.7733 20.3115C80.2642 20.3115 80.587 20.4941 80.8207 20.792L84.2962 25.2608V21.4585C84.2962 20.8593 84.7723 20.3115 85.5231 20.3115C86.3111 20.3115 86.7886 20.8593 86.7886 21.4585V29.1468C86.7886 29.7465 86.3125 30.3072 85.5231 30.3072C85.0842 30.3072 84.7614 30.1376 84.5157 29.8267L81.0402 25.369V29.1487C81.0402 29.7484 80.5641 30.3092 79.7748 30.3092C79.0259 30.3092 78.5479 29.7484 78.5479 29.1487V21.4604C78.5464 20.8593 79.0244 20.3115 79.7733 20.3115Z" fill="#5446F6"/>
<path d="M85.5205 30.5253C85.0344 30.5253 84.6388 30.3331 84.3451 29.9607L81.2533 25.996V29.1511C81.2533 29.8185 80.7348 30.5277 79.7736 30.5277C79.5803 30.5313 79.3882 30.4961 79.2084 30.4243C79.0286 30.3524 78.8647 30.2453 78.7262 30.1092C78.4749 29.8546 78.3329 29.5104 78.3311 29.1511V21.4628C78.3308 21.2854 78.3657 21.1097 78.4338 20.9461C78.502 20.7825 78.6019 20.6344 78.7276 20.5104C79.0085 20.2398 79.384 20.0922 79.7722 20.0996C80.2959 20.0996 80.692 20.2846 80.9872 20.6651L84.0785 24.6385V21.4585C84.0782 21.281 84.1131 21.1053 84.1812 20.9418C84.2494 20.7782 84.3492 20.63 84.475 20.5061C84.7559 20.2355 85.1314 20.0878 85.5196 20.0952C86.3632 20.0952 86.9993 20.6815 86.9993 21.4585V29.1467C87.0002 29.8161 86.4818 30.5253 85.5205 30.5253ZM80.8248 24.7466L84.6812 29.696C84.895 29.9684 85.1616 30.0957 85.5201 30.0957C86.03 30.0957 86.5713 29.7647 86.5713 29.1515V21.4633C86.5713 21.001 86.2104 20.5325 85.5201 20.5325C84.8626 20.5325 84.5074 21.013 84.5074 21.4633V25.8956L80.6511 20.9323C80.4397 20.6594 80.1612 20.5325 79.7736 20.5325C79.1161 20.5325 78.761 21.013 78.761 21.4633V29.1515C78.761 29.6095 79.1161 30.0957 79.7736 30.0957C80.2835 30.0957 80.8248 29.7647 80.8248 29.1515V24.7466Z" fill="black"/>
<path d="M53.4845 26.7077C53.533 26.7079 53.5811 26.6984 53.6259 26.6797C53.6707 26.6611 53.7114 26.6337 53.7457 26.599C53.7799 26.5644 53.8071 26.5233 53.8255 26.478C53.8439 26.4327 53.8533 26.3842 53.853 26.3353V25.0956C53.8525 25.0336 53.8279 24.9743 53.7846 24.9305C53.7412 24.8866 53.6825 24.8617 53.6212 24.8611H53.3412C53.2798 24.8618 53.2212 24.8868 53.1778 24.9306C53.1343 24.9744 53.1096 25.0336 53.1089 25.0956H53.116V26.3353C53.1158 26.3842 53.1251 26.4327 53.1436 26.478C53.162 26.5233 53.1891 26.5644 53.2234 26.599C53.2576 26.6337 53.2983 26.6611 53.3432 26.6797C53.388 26.6984 53.436 26.7079 53.4845 26.7077Z" fill="white"/>
<path d="M53.4843 26.7557C53.3739 26.7555 53.2682 26.7111 53.1902 26.6323C53.1122 26.5534 53.0683 26.4466 53.0682 26.3353V25.1436H53.0615V25.0955C53.063 25.0211 53.0929 24.9502 53.145 24.8975C53.197 24.8449 53.2673 24.8146 53.341 24.813H53.6209C53.6946 24.8146 53.7649 24.8449 53.817 24.8975C53.869 24.9502 53.8989 25.0211 53.9004 25.0955V26.3353C53.9003 26.4466 53.8564 26.5534 53.7784 26.6323C53.7004 26.7111 53.5947 26.7555 53.4843 26.7557ZM53.1629 25.0475V26.3353C53.1629 26.4212 53.1967 26.5035 53.2569 26.5643C53.3171 26.625 53.3987 26.6591 53.4838 26.6591C53.5689 26.6591 53.6505 26.625 53.7107 26.5643C53.7709 26.5035 53.8047 26.4212 53.8047 26.3353V25.0955C53.8041 25.0464 53.7845 24.9994 53.7501 24.9646C53.7157 24.9297 53.6692 24.9098 53.6205 24.9091H53.3405C53.3001 24.9098 53.261 24.9236 53.229 24.9485C53.197 24.9735 53.1738 25.0082 53.1629 25.0475Z" fill="black"/>
<path d="M54.0304 25.0956V26.6731C54.0302 26.722 54.0396 26.7705 54.0581 26.8157C54.0765 26.8609 54.1037 26.9019 54.1379 26.9365C54.1722 26.9711 54.2129 26.9985 54.2577 27.0171C54.3025 27.0357 54.3505 27.0452 54.3989 27.045H54.4537C54.5021 27.0452 54.5501 27.0357 54.5949 27.0171C54.6397 26.9985 54.6804 26.9711 54.7147 26.9365C54.7489 26.9019 54.7761 26.8609 54.7945 26.8157C54.813 26.7705 54.8224 26.722 54.8222 26.6731V25.6881C54.7797 25.6323 54.7475 25.5693 54.727 25.5021L54.6651 25.3157C54.642 25.2439 54.6381 25.1673 54.6537 25.0936C54.6693 25.0199 54.704 24.9516 54.7541 24.8957C54.7674 24.8817 54.7812 24.8683 54.7951 24.8544C54.7776 24.8121 54.7482 24.7759 54.7105 24.7502C54.6729 24.7246 54.6286 24.7107 54.5832 24.7102H54.2499C54.1885 24.7107 54.1298 24.7355 54.0863 24.7793C54.0429 24.823 54.0182 24.8823 54.0176 24.9442H54.0314L54.0304 25.0956Z" fill="white"/>
<path d="M54.4539 27.093H54.3992C54.2888 27.0929 54.1831 27.0486 54.1051 26.9699C54.0271 26.8912 53.9832 26.7844 53.983 26.6731V24.9913H53.9692V24.9432C53.9708 24.8688 54.0008 24.7979 54.053 24.7453C54.1052 24.6928 54.1755 24.6626 54.2492 24.6611H54.5824C54.6372 24.6618 54.6906 24.6786 54.736 24.7095C54.7815 24.7404 54.8169 24.7841 54.8381 24.8351L54.8505 24.8649L54.7867 24.9293C54.7426 24.9788 54.7122 25.0391 54.6987 25.1043C54.6851 25.1694 54.6889 25.237 54.7096 25.3002L54.771 25.4862C54.7905 25.5484 54.8204 25.6067 54.8595 25.6587L54.8691 25.6712V26.6726C54.8691 26.7838 54.8254 26.8906 54.7475 26.9694C54.6697 27.0482 54.5641 27.0927 54.4539 27.093ZM54.073 24.8956H54.0802V26.6735C54.0803 26.7594 54.1141 26.8417 54.1743 26.9024C54.2344 26.9631 54.316 26.9973 54.4011 26.9974H54.4558C54.5409 26.9974 54.6225 26.9633 54.6827 26.9026C54.7429 26.8418 54.7767 26.7594 54.7767 26.6735V25.7039C54.7348 25.6468 54.7027 25.5832 54.6815 25.5155L54.6205 25.331C54.5944 25.2513 54.5897 25.1661 54.6069 25.084C54.6242 25.002 54.6627 24.926 54.7186 24.8639L54.7372 24.8452C54.7208 24.8188 54.6982 24.7969 54.6713 24.7816C54.6445 24.7664 54.6142 24.7581 54.5834 24.7577H54.2501C54.2095 24.758 54.1701 24.7717 54.1378 24.7965C54.1056 24.8214 54.0821 24.8562 54.0711 24.8956H54.073Z" fill="black"/>
<path d="M56.5831 25.1849L56.7197 25.3156V24.8428C56.7192 24.7826 56.6953 24.7251 56.6532 24.6826C56.6111 24.6401 56.5541 24.616 56.4945 24.6155H56.1613C56.1006 24.6165 56.0428 24.6417 56.0006 24.6857C55.9584 24.7297 55.9352 24.7888 55.9361 24.85V24.9389L56.1741 24.9869C56.3241 25.019 56.4644 25.0869 56.5831 25.1849Z" fill="white"/>
<path d="M56.7675 25.4275L56.5514 25.2204C56.4388 25.1275 56.306 25.0629 56.1638 25.032L55.8872 24.9763V24.8475C55.8863 24.7735 55.9146 24.7022 55.9657 24.6493C56.0169 24.5963 56.0867 24.566 56.16 24.5649H56.4933C56.5653 24.5659 56.6341 24.5953 56.6851 24.6467C56.736 24.6981 56.7651 24.7676 56.7661 24.8403L56.7675 25.4275ZM55.9824 24.8989L56.1834 24.9393C56.342 24.9732 56.49 25.0456 56.6147 25.1502L56.6709 25.204V24.8427C56.6702 24.7953 56.6513 24.7501 56.6182 24.7166C56.585 24.6832 56.5402 24.6641 56.4933 24.6634H56.16C56.112 24.6646 56.0664 24.6848 56.0332 24.7197C55.9999 24.7547 55.9817 24.8014 55.9824 24.8499V24.8989Z" fill="black"/>
<path d="M55.1498 24.7643L55.7644 24.8955V24.7715C55.7635 24.7081 55.7381 24.6476 55.6936 24.6027C55.6492 24.5579 55.5892 24.5322 55.5264 24.5313H55.2122C55.1501 24.5312 55.0905 24.5557 55.046 24.5994C55.0015 24.6431 54.9757 24.7026 54.9741 24.7653C55.0319 24.7517 55.0919 24.7514 55.1498 24.7643Z" fill="white"/>
<path d="M55.8122 24.9548L55.1399 24.8106C55.0883 24.7981 55.0345 24.7981 54.9828 24.8106L54.9219 24.8245L54.9252 24.7611C54.9284 24.6865 54.9597 24.6159 55.0129 24.5639C55.066 24.5119 55.1369 24.4824 55.2109 24.4814H55.5251C55.6005 24.4827 55.6724 24.5135 55.7257 24.5673C55.779 24.6211 55.8095 24.6937 55.8107 24.7698L55.8122 24.9548ZM55.1599 24.7179L55.717 24.8366V24.7717C55.7161 24.721 55.6958 24.6726 55.6602 24.6367C55.6247 24.6009 55.5768 24.5803 55.5265 24.5795H55.2123C55.1728 24.5795 55.1344 24.592 55.1022 24.615C55.0701 24.6381 55.0458 24.6707 55.0328 24.7083C55.0754 24.7052 55.1182 24.7084 55.1599 24.7179Z" fill="black"/>
<path d="M56.4678 25.3087C56.3732 25.2292 56.2605 25.1747 56.1398 25.1501L55.1162 24.93C55.0716 24.9207 55.0254 24.9234 54.9823 24.9379C54.9391 24.9524 54.9005 24.9782 54.8705 25.0127C54.8403 25.0467 54.8194 25.0881 54.8098 25.1327C54.8002 25.1774 54.8023 25.2238 54.8158 25.2674L54.8772 25.4533C54.8991 25.524 54.936 25.589 54.9853 25.6437C55.0346 25.6985 55.0952 25.7418 55.1628 25.7705L56.0707 26.1698C56.0872 26.1665 56.1043 26.168 56.12 26.1742C56.1356 26.1803 56.1493 26.1908 56.1593 26.2044L56.7268 27.0049C56.7335 27.0138 56.7383 27.024 56.7409 27.0349C56.7435 27.0458 56.7438 27.057 56.7419 27.0681C56.74 27.0791 56.7358 27.0895 56.7297 27.0989C56.7236 27.1082 56.7156 27.1161 56.7063 27.1222C56.6919 27.1308 56.6755 27.1356 56.6587 27.1361H56.6449C56.5575 27.1933 56.4558 27.2242 56.3516 27.2255H56.2969C56.2205 27.2254 56.145 27.2088 56.0755 27.1767C56.006 27.1446 55.9441 27.0978 55.8941 27.0395C55.8548 27.1425 55.7855 27.231 55.6953 27.2935C55.6051 27.3559 55.4983 27.3893 55.389 27.3893H55.3347C55.225 27.3902 55.1176 27.3569 55.0273 27.2941C54.9369 27.2313 54.8679 27.1419 54.8296 27.0381C54.7794 27.0962 54.7175 27.1429 54.6481 27.175C54.5786 27.207 54.5032 27.2238 54.4268 27.224H54.3701C54.2362 27.2244 54.1068 27.1746 54.0072 27.0842C53.9075 26.9938 53.8446 26.8694 53.8307 26.7349C53.7823 26.7835 53.7248 26.822 53.6616 26.848C53.5983 26.874 53.5305 26.887 53.4622 26.8862C53.3579 26.8862 53.2559 26.8551 53.1689 26.7969C53.1756 27.0587 53.2232 27.6238 53.5974 28.0371C53.9183 28.3949 54.3962 28.574 55.0309 28.5743C56.6021 28.5743 56.8668 27.9338 57.0582 27.472C57.1334 27.3 57.3438 26.4595 57.331 26.1491L56.4678 25.3087Z" fill="white"/>
<path d="M55.0365 28.6223C54.3904 28.6223 53.8938 28.4364 53.5677 28.0693C53.292 27.7656 53.1392 27.3264 53.1254 26.7983L53.1226 26.7056L53.1992 26.757C53.2785 26.8097 53.3713 26.8379 53.4663 26.8382C53.5281 26.8385 53.5893 26.8266 53.6465 26.803C53.7037 26.7794 53.7557 26.7447 53.7996 26.7008L53.8705 26.6292L53.8805 26.7301C53.8928 26.8528 53.95 26.9665 54.041 27.049C54.1319 27.1315 54.2501 27.1767 54.3723 27.176H54.4271C54.4966 27.1757 54.5653 27.1604 54.6285 27.1311C54.6917 27.1019 54.748 27.0593 54.7936 27.0064L54.8465 26.9453L54.8741 27.0213C54.9094 27.1157 54.9724 27.197 55.0548 27.2542C55.1372 27.3114 55.235 27.3418 55.335 27.3413H55.3892C55.4893 27.3416 55.5871 27.311 55.6695 27.2536C55.7518 27.1962 55.8149 27.1148 55.8501 27.0203L55.8791 26.9477L55.9301 27.0064C55.9757 27.0595 56.032 27.1022 56.0953 27.1315C56.1587 27.1607 56.2275 27.1759 56.2972 27.176H56.3519C56.4474 27.1748 56.5405 27.1461 56.6204 27.0933L56.6318 27.0866H56.659C56.6672 27.0863 56.6753 27.0838 56.6823 27.0794C56.6893 27.0738 56.6941 27.0657 56.6956 27.0568C56.6963 27.0528 56.6962 27.0486 56.6952 27.0447C56.6942 27.0407 56.6924 27.037 56.6899 27.0338L56.122 26.2322C56.1172 26.2261 56.1108 26.2215 56.1036 26.2187C56.0964 26.216 56.0886 26.2154 56.081 26.2169L56.0667 26.2202L55.145 25.8142C55.0711 25.7831 55.0048 25.736 54.9508 25.6763C54.8968 25.6167 54.8563 25.5458 54.8322 25.4687L54.7708 25.2827C54.7545 25.231 54.752 25.1758 54.7633 25.1227C54.7747 25.0696 54.7996 25.0205 54.8356 24.9801C54.8716 24.9397 54.9174 24.9095 54.9685 24.8924C55.0196 24.8754 55.0742 24.8721 55.1269 24.883L56.15 25.1035C56.279 25.1292 56.3994 25.1876 56.5 25.2731L57.3807 26.127V26.1462C57.395 26.4624 57.1827 27.31 57.1037 27.4917C56.9075 27.9684 56.6366 28.6223 55.0365 28.6223ZM53.224 26.8805C53.2502 27.347 53.3925 27.7343 53.6382 28.0044C53.9481 28.3508 54.4185 28.5262 55.0365 28.5262C56.5757 28.5262 56.8323 27.9064 57.0199 27.4537C57.0927 27.286 57.2936 26.4836 57.2898 26.1703L56.4371 25.3438C56.3487 25.2713 56.2441 25.2218 56.1324 25.1996L55.1083 24.9791C55.072 24.972 55.0344 24.9745 54.9992 24.9865C54.9641 24.9984 54.9326 25.0193 54.9079 25.0472C54.8832 25.0751 54.8661 25.109 54.8583 25.1456C54.8504 25.1821 54.8521 25.2201 54.8632 25.2558L54.9246 25.4408C54.9443 25.5051 54.9777 25.5641 55.0224 25.6139C55.0672 25.6637 55.1222 25.7031 55.1836 25.7292L56.0805 26.1237C56.1035 26.122 56.1265 26.1262 56.1475 26.1359C56.1684 26.1455 56.1867 26.1603 56.2005 26.1789L56.768 26.979C56.7782 26.9925 56.7856 27.008 56.7897 27.0246C56.7938 27.0411 56.7945 27.0583 56.7918 27.0751C56.789 27.0931 56.7825 27.1102 56.7728 27.1255C56.763 27.1408 56.7502 27.1539 56.7352 27.164L56.7299 27.1669C56.7089 27.1791 56.6851 27.1857 56.6609 27.1861C56.5687 27.2436 56.4627 27.2745 56.3543 27.2755H56.2995C56.1558 27.2758 56.0172 27.2218 55.911 27.1241C55.8604 27.2193 55.785 27.2988 55.693 27.354C55.601 27.4092 55.4958 27.438 55.3888 27.4374H55.3345C55.2274 27.4377 55.1223 27.4084 55.0305 27.3528C54.9387 27.2971 54.8637 27.2172 54.8136 27.1217C54.7073 27.2181 54.5695 27.2716 54.4266 27.2721H54.3699C54.239 27.2727 54.1116 27.2291 54.0081 27.1482C53.9045 27.0673 53.8308 26.9538 53.7986 26.8257C53.7009 26.8971 53.5831 26.9352 53.4625 26.9343C53.3793 26.9339 53.2972 26.9155 53.2216 26.8805H53.224Z" fill="black"/>
<path d="M55.3886 27.2034C55.437 27.2036 55.485 27.1941 55.5298 27.1755C55.5746 27.1569 55.6153 27.1295 55.6496 27.0949C55.6838 27.0603 55.711 27.0192 55.7294 26.974C55.7479 26.9288 55.7573 26.8804 55.7571 26.8315V26.2183L55.0882 25.93C55.0472 25.9113 55.0084 25.8881 54.9725 25.8608V26.6739H54.9653V26.8324C54.9651 26.8814 54.9746 26.9299 54.993 26.9751C55.0115 27.0204 55.0387 27.0615 55.073 27.096C55.1073 27.1306 55.1481 27.158 55.1929 27.1766C55.2378 27.1952 55.2858 27.2046 55.3343 27.2044L55.3886 27.2034Z" fill="white"/>
<path d="M55.3888 27.2515H55.3345C55.2242 27.2514 55.1184 27.2071 55.0403 27.1284C54.9622 27.0497 54.9182 26.9429 54.918 26.8316V26.6249H54.9251V25.76L55.0022 25.8225C55.0357 25.8473 55.0716 25.8685 55.1094 25.8859L55.8049 26.1867V26.8316C55.8048 26.9429 55.7609 27.0497 55.6829 27.1284C55.6049 27.2071 55.4991 27.2514 55.3888 27.2515ZM55.0132 26.723V26.8335C55.0133 26.9194 55.0472 27.0018 55.1075 27.0625C55.1677 27.1232 55.2494 27.1573 55.3345 27.1573H55.3888C55.4739 27.1573 55.5555 27.1232 55.6157 27.0625C55.6759 27.0018 55.7097 26.9194 55.7097 26.8335V26.2521L55.0698 25.9748L55.0222 25.9493V26.723H55.0132Z" fill="black"/>
<path d="M56.3579 27.0532C56.4174 27.0541 56.4762 27.0399 56.5288 27.0118L56.0527 26.3435C56.046 26.3435 56.0389 26.3362 56.0322 26.3362L55.937 26.2949V26.6793C55.9368 26.7282 55.9462 26.7767 55.9647 26.822C55.9831 26.8672 56.0102 26.9083 56.0445 26.9429C56.0787 26.9775 56.1194 27.005 56.1642 27.0236C56.209 27.0423 56.257 27.0519 56.3055 27.0517L56.3579 27.0532Z" fill="white"/>
<path d="M56.3581 27.101H56.3033C56.1929 27.1008 56.0872 27.0564 56.0092 26.9776C55.9312 26.8988 55.8873 26.792 55.8872 26.6806V26.2222L56.0438 26.2899C56.049 26.2911 56.0539 26.2929 56.0586 26.2952H56.0753L56.599 27.0266L56.5514 27.053C56.492 27.0853 56.4255 27.1018 56.3581 27.101ZM55.9824 26.3678V26.6806C55.9826 26.7665 56.0164 26.8488 56.0765 26.9096C56.1367 26.9704 56.2182 27.0047 56.3033 27.0049H56.3581C56.3903 27.005 56.4224 27.0003 56.4533 26.991L56.0186 26.3841L55.9824 26.3678Z" fill="black"/>
<path d="M57.505 26.0666L56.9042 25.4813V24.8427C56.904 24.7368 56.8623 24.6353 56.7882 24.5605C56.714 24.4856 56.6134 24.4435 56.5085 24.4434H56.1753C56.0705 24.4443 55.9702 24.4861 55.8953 24.5601C55.8596 24.4971 55.8079 24.4448 55.7456 24.4085C55.6833 24.3722 55.6126 24.3533 55.5406 24.3535H55.2269C55.143 24.3542 55.0613 24.3811 54.9931 24.4304C54.9249 24.4798 54.8735 24.5493 54.846 24.6293C54.7744 24.5714 54.6855 24.5397 54.5937 24.5395H54.2604C54.1817 24.5402 54.1049 24.5641 54.0394 24.6082C53.974 24.6523 53.9227 24.7148 53.8919 24.7879C53.8206 24.7239 53.7279 24.6896 53.6325 24.6918H53.3525C53.2458 24.6921 53.1435 24.735 53.068 24.8111C52.9925 24.8873 52.95 24.9906 52.9497 25.0983V26.3381C52.9486 26.4384 52.9771 26.5367 53.0316 26.6206C53.025 26.6552 52.9431 27.523 53.4958 28.1501C53.8443 28.5427 54.3699 28.7426 55.0522 28.7426C56.6019 28.7426 56.9842 28.1501 57.2365 27.5369C57.305 27.337 57.544 26.4279 57.5098 26.104L57.505 26.0666ZM55.9339 24.8475C55.933 24.7863 55.9562 24.7272 55.9984 24.6832C56.0407 24.6393 56.0984 24.614 56.1591 24.613H56.4924C56.5519 24.6135 56.6089 24.6376 56.651 24.6801C56.6932 24.7226 56.7171 24.7802 56.7175 24.8403V25.3155L56.5809 25.1848C56.4623 25.086 56.3218 25.0175 56.1715 24.9849L55.9334 24.9369L55.9339 24.8475ZM55.2102 24.5303H55.5245C55.5873 24.5313 55.6473 24.557 55.6917 24.6018C55.7361 24.6467 55.7615 24.7072 55.7625 24.7706V24.8946L55.1479 24.7634C55.0896 24.7499 55.029 24.7499 54.9708 24.7634C54.9726 24.7005 54.9988 24.6409 55.0438 24.5973C55.0888 24.5537 55.1489 24.5297 55.2112 24.5303H55.2102ZM54.248 24.7096H54.5813C54.6267 24.7101 54.671 24.724 54.7086 24.7496C54.7463 24.7752 54.7757 24.8114 54.7932 24.8537C54.7794 24.8677 54.7656 24.8811 54.7522 24.8951C54.7021 24.951 54.6675 25.0192 54.6518 25.093C54.6362 25.1667 54.6401 25.2433 54.6632 25.315L54.7251 25.5015C54.7456 25.5687 54.7778 25.6317 54.8203 25.6874V26.6725C54.8205 26.7214 54.8111 26.7698 54.7926 26.815C54.7742 26.8603 54.7471 26.9013 54.7128 26.9359C54.6785 26.9705 54.6378 26.9979 54.5931 27.0165C54.5483 27.0351 54.5003 27.0446 54.4518 27.0444H54.3971C54.3486 27.0446 54.3006 27.0351 54.2558 27.0165C54.211 26.9979 54.1703 26.9705 54.1361 26.9359C54.1018 26.9013 54.0747 26.8603 54.0562 26.815C54.0378 26.7698 54.0284 26.7214 54.0286 26.6725V24.9426H54.0148C54.0156 24.8805 54.0407 24.8212 54.0845 24.7776C54.1284 24.734 54.1874 24.7096 54.249 24.7096H54.248ZM53.1054 25.094C53.1062 25.032 53.1309 24.9728 53.1743 24.929C53.2177 24.8852 53.2764 24.8602 53.3378 24.8595H53.6177C53.6791 24.8601 53.7378 24.8851 53.7811 24.9289C53.8245 24.9728 53.8491 25.032 53.8496 25.094V26.3337C53.8496 26.4324 53.8107 26.527 53.7416 26.5967C53.6725 26.6665 53.5788 26.7056 53.4811 26.7056C53.3833 26.7056 53.2896 26.6665 53.2205 26.5967C53.1514 26.527 53.1126 26.4324 53.1126 26.3337V25.094H53.1054ZM57.057 27.4706C56.8666 27.9324 56.5995 28.5729 55.0298 28.5729C54.395 28.5729 53.9172 28.3939 53.5963 28.0357C53.2206 27.6225 53.173 27.0574 53.1678 26.7955C53.2547 26.8538 53.3567 26.8849 53.4611 26.8849C53.5294 26.8856 53.5971 26.8726 53.6604 26.8466C53.7237 26.8206 53.7812 26.7822 53.8296 26.7335C53.8432 26.8684 53.906 26.9934 54.0059 27.0841C54.1058 27.1748 54.2356 27.2247 54.3699 27.2241H54.4247C54.5011 27.2238 54.5765 27.2071 54.646 27.175C54.7154 27.143 54.7773 27.0963 54.8275 27.0382C54.8658 27.142 54.9348 27.2313 55.0251 27.2942C55.1155 27.357 55.2228 27.3903 55.3326 27.3894H55.3869C55.4964 27.3893 55.6033 27.3557 55.6935 27.293C55.7837 27.2303 55.8529 27.1414 55.892 27.0382C55.942 27.0965 56.0039 27.1433 56.0734 27.1753C56.1428 27.2074 56.2184 27.2241 56.2948 27.2241H56.3495C56.4537 27.2229 56.5554 27.1919 56.6428 27.1347H56.6566C56.6734 27.1343 56.6898 27.1295 56.7042 27.1208C56.7135 27.1147 56.7215 27.1068 56.7276 27.0975C56.7337 27.0882 56.7379 27.0777 56.7398 27.0667C56.7417 27.0557 56.7414 27.0444 56.7388 27.0335C56.7362 27.0227 56.7314 27.0125 56.7247 27.0036L56.1581 26.2045C56.1481 26.1909 56.1345 26.1804 56.1188 26.1743C56.1031 26.1681 56.0861 26.1666 56.0696 26.1699L55.1617 25.7706C55.0941 25.7419 55.0335 25.6986 54.9841 25.6438C54.9348 25.589 54.8979 25.5241 54.876 25.4534L54.8146 25.2675C54.8011 25.2239 54.799 25.1775 54.8086 25.1328C54.8182 25.0882 54.8392 25.0468 54.8693 25.0128C54.8994 24.9783 54.938 24.9525 54.9811 24.938C55.0243 24.9234 55.0705 24.9207 55.115 24.9301L56.1386 25.1502C56.2593 25.1748 56.372 25.2293 56.4666 25.3088L57.3331 26.1492C57.3479 26.4596 57.1365 27.3 57.0613 27.4721L57.057 27.4706ZM54.9622 26.8301V26.6715H54.9693V25.8599C55.0053 25.8872 55.0441 25.9104 55.085 25.9291L55.7539 26.2174V26.8306C55.7541 26.8795 55.7447 26.9279 55.7263 26.9731C55.7078 27.0183 55.6807 27.0594 55.6464 27.094C55.6122 27.1286 55.5715 27.156 55.5267 27.1746C55.4819 27.1932 55.4339 27.2027 55.3854 27.2025H55.3312C55.234 27.2021 55.1409 27.1629 55.0724 27.0933C55.0038 27.0238 54.9654 26.9296 54.9655 26.8315L54.9622 26.8301ZM55.9315 26.6783V26.2938L56.0267 26.3352C56.0334 26.3352 56.0405 26.3424 56.0472 26.3424L56.5233 27.0108C56.4707 27.0388 56.4119 27.053 56.3524 27.0521H56.2976C56.2007 27.0508 56.1082 27.011 56.0403 26.9413C55.9724 26.8715 55.9345 26.7775 55.9348 26.6797L55.9315 26.6783Z" fill="black"/>
<path d="M55.0476 28.7876C54.3496 28.7876 53.814 28.583 53.456 28.1793C52.9223 27.5743 52.9656 26.7704 52.9799 26.6296C52.9257 26.5412 52.8976 26.439 52.899 26.3351V25.0954C52.8991 24.9748 52.9466 24.8593 53.031 24.7741C53.1155 24.6888 53.23 24.6409 53.3494 24.6408H53.6293C53.7156 24.6397 53.8002 24.6645 53.8726 24.7119C53.912 24.6442 53.9682 24.588 54.0356 24.5489C54.1031 24.5098 54.1795 24.4892 54.2573 24.4889H54.5905C54.672 24.4892 54.752 24.5116 54.8219 24.5538C54.8597 24.4785 54.9173 24.4153 54.9885 24.371C55.0597 24.3267 55.1416 24.3032 55.2252 24.303H55.5394C55.61 24.3032 55.6796 24.3198 55.7428 24.3515C55.806 24.3831 55.8612 24.429 55.9041 24.4856C55.9818 24.4261 56.0765 24.3936 56.174 24.3928H56.5073C56.6248 24.3931 56.7374 24.4403 56.8204 24.5241C56.9035 24.608 56.9503 24.7216 56.9505 24.8402V25.4605L57.5514 26.0463V26.0987C57.5852 26.435 57.3405 27.3605 57.2757 27.5498C57.0186 28.1774 56.6344 28.7876 55.0476 28.7876ZM53.3479 24.7369C53.2538 24.737 53.1635 24.7748 53.0969 24.842C53.0304 24.9092 52.9929 25.0003 52.9928 25.0954V26.3351C52.9915 26.426 53.0174 26.5153 53.067 26.5912L53.078 26.6075L53.0737 26.6272C53.0737 26.6349 52.9785 27.4946 53.5269 28.1168C53.8659 28.5013 54.3777 28.6935 55.0476 28.6935C56.5759 28.6935 56.9429 28.1125 57.19 27.5176C57.2662 27.2942 57.4914 26.4086 57.4595 26.1078V26.0891L56.8587 25.5033V24.8426C56.8585 24.7495 56.8218 24.6602 56.7566 24.5944C56.6913 24.5285 56.6029 24.4915 56.5106 24.4913H56.1774C56.0852 24.4921 55.9969 24.529 55.9312 24.5942L55.8865 24.6393L55.856 24.5836C55.8242 24.5282 55.7785 24.4822 55.7235 24.4502C55.6685 24.4183 55.6062 24.4015 55.5427 24.4015H55.2271C55.1528 24.4018 55.0804 24.4254 55.02 24.469C54.9597 24.5127 54.9142 24.5742 54.89 24.6451L54.8676 24.709L54.8153 24.6667C54.752 24.6157 54.6735 24.5877 54.5924 24.5874H54.2592C54.1899 24.5884 54.1223 24.6096 54.0647 24.6485C54.0071 24.6874 53.9619 24.7423 53.9345 24.8066L53.9083 24.8681L53.8607 24.8234C53.798 24.7675 53.7167 24.7375 53.6331 24.7393L53.3479 24.7369ZM55.0366 28.6224C54.3906 28.6224 53.894 28.4364 53.5679 28.0693C53.2922 27.7656 53.1394 27.3264 53.1256 26.7983L53.1227 26.7056L53.1994 26.757C53.2787 26.8097 53.3715 26.838 53.4665 26.8382C53.5283 26.8385 53.5895 26.8266 53.6467 26.803C53.7039 26.7794 53.7559 26.7447 53.7997 26.7008L53.8707 26.6292L53.8807 26.7301C53.893 26.8528 53.9502 26.9665 54.0412 27.049C54.1321 27.1315 54.2502 27.1767 54.3725 27.176H54.4272C54.4968 27.1757 54.5655 27.1604 54.6287 27.1311C54.6919 27.1019 54.7482 27.0594 54.7938 27.0064L54.8467 26.9453L54.8743 27.0213C54.9096 27.1157 54.9726 27.197 55.055 27.2542C55.1374 27.3114 55.2352 27.3418 55.3352 27.3413H55.3894C55.4895 27.3416 55.5873 27.311 55.6697 27.2536C55.752 27.1963 55.8151 27.1148 55.8503 27.0203L55.8793 26.9477L55.9303 27.0064C55.9758 27.0595 56.0322 27.1022 56.0955 27.1315C56.1589 27.1607 56.2277 27.1759 56.2973 27.176H56.3521C56.4476 27.1748 56.5407 27.1461 56.6206 27.0933L56.632 27.0866H56.6592C56.6674 27.0863 56.6755 27.0838 56.6825 27.0794C56.6895 27.0738 56.6943 27.0657 56.6958 27.0568C56.6965 27.0528 56.6964 27.0487 56.6954 27.0447C56.6944 27.0407 56.6926 27.037 56.6901 27.0338L56.1221 26.2323C56.1174 26.2261 56.111 26.2215 56.1038 26.2188C56.0966 26.216 56.0888 26.2154 56.0812 26.2169L56.0669 26.2202L55.1452 25.8142C55.0713 25.7831 55.005 25.736 54.951 25.6763C54.897 25.6167 54.8565 25.5458 54.8324 25.4687L54.771 25.2828C54.7547 25.231 54.7522 25.1758 54.7635 25.1227C54.7749 25.0696 54.7998 25.0205 54.8358 24.9801C54.8717 24.9397 54.9175 24.9095 54.9686 24.8924C55.0197 24.8754 55.0744 24.8721 55.1271 24.883L56.1502 25.1035C56.2792 25.1292 56.3996 25.1876 56.5002 25.2731L57.3819 26.128V26.1472C57.3962 26.4634 57.1838 27.3096 57.1053 27.4927C56.9072 27.9688 56.6363 28.6224 55.0366 28.6224ZM53.2242 26.8805C53.2503 27.3471 53.3927 27.7344 53.6384 28.0044C53.9483 28.3509 54.4187 28.5262 55.0366 28.5262C56.5759 28.5262 56.8325 27.9064 57.0201 27.4537C57.0929 27.287 57.2938 26.4845 57.29 26.1712L56.4368 25.3443C56.3487 25.2717 56.2442 25.2222 56.1326 25.2001L55.1085 24.9795C55.0721 24.9724 55.0345 24.975 54.9994 24.9869C54.9643 24.9989 54.9328 25.0198 54.9081 25.0477C54.8834 25.0756 54.8663 25.1095 54.8585 25.1461C54.8506 25.1826 54.8523 25.2206 54.8633 25.2563L54.9248 25.4413C54.9445 25.5055 54.9779 25.5646 55.0226 25.6144C55.0674 25.6642 55.1224 25.7036 55.1838 25.7296L56.0807 26.1241C56.1037 26.1225 56.1267 26.1267 56.1477 26.1364C56.1686 26.146 56.1868 26.1608 56.2007 26.1794L56.7682 26.9795C56.7784 26.993 56.7858 27.0085 56.7899 27.025C56.794 27.0416 56.7947 27.0588 56.792 27.0756C56.7892 27.0935 56.7827 27.1107 56.7729 27.126C56.7632 27.1413 56.7504 27.1544 56.7354 27.1645L56.7301 27.1673C56.7091 27.1796 56.6853 27.1862 56.6611 27.1866C56.5689 27.2441 56.4629 27.275 56.3545 27.2759H56.2997C56.156 27.2763 56.0174 27.2223 55.9112 27.1246C55.8605 27.2197 55.7851 27.2991 55.6931 27.3542C55.6011 27.4093 55.496 27.4381 55.389 27.4374H55.3347C55.2276 27.4377 55.1225 27.4084 55.0307 27.3528C54.9389 27.2971 54.8639 27.2172 54.8138 27.1217C54.7075 27.2181 54.5697 27.2716 54.4268 27.2721H54.3701C54.2392 27.2727 54.1118 27.2291 54.0083 27.1482C53.9047 27.0673 53.831 26.9538 53.7988 26.8257C53.7011 26.8971 53.5833 26.9352 53.4627 26.9343C53.3795 26.9339 53.2974 26.9155 53.2218 26.8805H53.2242ZM55.3913 27.2514H55.3371C55.2267 27.2513 55.1209 27.207 55.0428 27.1283C54.9647 27.0496 54.9207 26.9429 54.9205 26.8315V26.6248H54.9276V25.7599L55.0047 25.8224C55.0382 25.8472 55.0741 25.8684 55.1119 25.8858L55.8074 26.1866V26.8315C55.8074 26.8868 55.7965 26.9416 55.7754 26.9927C55.7543 27.0437 55.7235 27.0901 55.6846 27.1291C55.6457 27.1682 55.5996 27.199 55.5488 27.22C55.4981 27.241 55.4438 27.2517 55.389 27.2514H55.3913ZM55.0157 26.7229V26.8334C55.0158 26.9193 55.0497 27.0017 55.11 27.0624C55.1702 27.1231 55.2519 27.1573 55.3371 27.1573H55.3913C55.4764 27.1573 55.5581 27.1231 55.6182 27.0624C55.6784 27.0017 55.7122 26.9193 55.7122 26.8334V26.252L55.0723 25.9747L55.0247 25.9492V26.7229H55.0157ZM56.3607 27.102H56.3059C56.1955 27.1017 56.0898 27.0573 56.0118 26.9785C55.9338 26.8997 55.8899 26.7929 55.8898 26.6815V26.2231L56.0464 26.2909C56.0515 26.292 56.0565 26.2938 56.0612 26.2962H56.0779L56.6016 27.0275L56.554 27.0539C56.4938 27.0863 56.4264 27.1025 56.3583 27.101L56.3607 27.102ZM55.985 26.3687V26.6815C55.9852 26.7674 56.019 26.8498 56.0791 26.9106C56.1393 26.9714 56.2208 27.0056 56.3059 27.0059H56.3607C56.3929 27.0059 56.425 27.0012 56.4559 26.992L56.0212 26.3851L55.985 26.3687ZM54.4563 27.0948H54.4015C54.2912 27.0947 54.1854 27.0504 54.1074 26.9716C54.0294 26.8929 53.9856 26.7862 53.9854 26.6748V24.993H53.9716V24.945C53.9732 24.8706 54.0032 24.7997 54.0554 24.7471C54.1076 24.6945 54.1779 24.6644 54.2516 24.6629H54.5848C54.6396 24.6636 54.693 24.6804 54.7384 24.7113C54.7838 24.7422 54.8193 24.7858 54.8405 24.8368L54.8529 24.8666L54.7891 24.931C54.745 24.9805 54.7146 25.0409 54.7011 25.106C54.6875 25.1712 54.6913 25.2388 54.7119 25.302L54.7734 25.4879C54.7929 25.5501 54.8228 25.6085 54.8619 25.6604L54.8714 25.6729V26.6743C54.8709 26.7857 54.8267 26.8923 54.7484 26.9707C54.6701 27.0492 54.5642 27.0931 54.4539 27.0929L54.4563 27.0948ZM54.0754 24.8974H54.0825V26.6753C54.0827 26.7612 54.1165 26.8435 54.1767 26.9042C54.2368 26.9649 54.3184 26.999 54.4034 26.9992H54.4582C54.5433 26.9992 54.6249 26.965 54.6851 26.9043C54.7453 26.8436 54.7791 26.7612 54.7791 26.6753V25.7032C54.7371 25.6464 54.705 25.5829 54.6839 25.5153L54.6229 25.3308C54.5968 25.2512 54.5921 25.1659 54.6093 25.0839C54.6266 25.0018 54.6651 24.9258 54.721 24.8637L54.7396 24.845C54.7232 24.8186 54.7006 24.7968 54.6737 24.7815C54.6469 24.7662 54.6166 24.758 54.5858 24.7575H54.2525C54.2115 24.7574 54.1716 24.7707 54.1388 24.7957C54.106 24.8206 54.0823 24.8556 54.0711 24.8955L54.0754 24.8974ZM53.4889 26.7575C53.3785 26.7572 53.2727 26.7128 53.1947 26.634C53.1167 26.5552 53.0729 26.4484 53.0727 26.337V25.1453H53.0661V25.0973C53.0675 25.0229 53.0974 24.9519 53.1495 24.8993C53.2016 24.8466 53.2718 24.8163 53.3456 24.8147H53.6255C53.6992 24.8163 53.7694 24.8466 53.8215 24.8993C53.8736 24.9519 53.9035 25.0229 53.905 25.0973V26.337C53.9047 26.3924 53.8935 26.4471 53.8722 26.4981C53.8509 26.5491 53.8198 26.5954 53.7808 26.6343C53.7417 26.6732 53.6955 26.7039 53.6447 26.7247C53.5938 26.7455 53.5394 26.756 53.4846 26.7555L53.4889 26.7575ZM53.1675 25.0492V26.337C53.1675 26.4229 53.2013 26.5053 53.2615 26.566C53.3217 26.6268 53.4033 26.6609 53.4884 26.6609C53.5735 26.6609 53.6551 26.6268 53.7153 26.566C53.7755 26.5053 53.8093 26.4229 53.8093 26.337V25.0973C53.8087 25.0481 53.7891 25.0011 53.7547 24.9663C53.7202 24.9315 53.6737 24.9116 53.625 24.9108H53.3451C53.3042 24.9104 53.2642 24.9236 53.2314 24.9482C53.1986 24.9729 53.1746 25.0076 53.1632 25.0473L53.1675 25.0492ZM56.772 25.4293L56.5549 25.2217C56.4427 25.129 56.3101 25.0646 56.1683 25.0338L55.8917 24.9781V24.8474C55.8908 24.7734 55.919 24.7021 55.9702 24.6492C56.0213 24.5962 56.0912 24.5659 56.1645 24.5649H56.4978C56.5698 24.5659 56.6386 24.5952 56.6896 24.6466C56.7405 24.698 56.7696 24.7675 56.7706 24.8402L56.772 25.4293ZM55.9869 24.9007L56.1878 24.9411C56.3464 24.9751 56.4945 25.0475 56.6192 25.1521L56.6768 25.2073V24.8426C56.6762 24.7953 56.6573 24.75 56.6241 24.7166C56.5909 24.6831 56.5461 24.664 56.4992 24.6634H56.1659C56.118 24.6645 56.0724 24.6847 56.0391 24.7197C56.0058 24.7546 55.9876 24.8014 55.9884 24.8498L55.9869 24.9007ZM55.8165 24.9579L55.1447 24.8138C55.0929 24.8013 55.0389 24.8013 54.9871 24.8138L54.9262 24.8277L54.9295 24.7643C54.9327 24.6896 54.964 24.6191 55.0172 24.567C55.0703 24.515 55.1412 24.4855 55.2152 24.4846H55.5294C55.6048 24.4859 55.6767 24.5166 55.73 24.5704C55.7833 24.6242 55.8138 24.6968 55.8151 24.7729L55.8165 24.9579ZM55.0657 24.7095C55.099 24.7096 55.1322 24.7135 55.1647 24.721L55.7213 24.8397V24.7748C55.7204 24.7241 55.7001 24.6758 55.6645 24.6399C55.629 24.604 55.5811 24.5835 55.5308 24.5826H55.2166C55.1772 24.5827 55.1387 24.5951 55.1066 24.6182C55.0744 24.6413 55.0501 24.6738 55.0371 24.7114L55.0657 24.7095Z" fill="black"/>
</g>
<defs>
<clipPath id="clip0">
<rect width="87" height="32" fill="white"/>
</clipPath>
</defs>
</svg>
