<svg width="48" height="48" viewBox="0 0 48 48" fill="none" xmlns="http://www.w3.org/2000/svg">
<path d="M35.9951 11.0822C35.9951 12.8354 34.7036 13.5737 33.4118 13.5737H26.8596V36.6873C26.8596 38.348 25.7983 39.4088 24.0002 39.4088C22.2021 39.4088 21.1408 38.348 21.1408 36.7332V13.5737H14.5427C13.2508 13.5737 12.0054 12.8354 12.0054 11.0822C12.0054 9.32912 13.2508 8.59131 14.5427 8.59131H33.4118C34.7036 8.59131 35.9951 9.32818 35.9951 11.0822Z" fill="#5446F6"/>
<path fill-rule="evenodd" clip-rule="evenodd" d="M12.9189 9.33088C12.4954 9.6924 12.2046 10.2571 12.2046 11.0822C12.2046 11.9074 12.4954 12.4722 12.9189 12.8339C13.3475 13.1998 13.9322 13.3744 14.5427 13.3744H21.3401V36.7332C21.3401 37.4958 21.5895 38.1091 22.0337 38.5324C22.4787 38.9565 23.1401 39.2096 24.0002 39.2096C24.8603 39.2096 25.5211 38.9565 25.9659 38.5275C26.4099 38.0991 26.6604 37.4743 26.6604 36.6873V13.3744H33.4118C34.0226 13.3744 34.6197 13.1996 35.0603 12.8323C35.4954 12.4697 35.7958 11.9049 35.7958 11.0822C35.7958 10.2591 35.4954 9.69448 35.0604 9.33207C34.6198 8.96504 34.0227 8.79053 33.4118 8.79053H14.5427C13.9321 8.79053 13.3475 8.96508 12.9189 9.33088ZM12.6603 9.02783C13.1774 8.58645 13.8614 8.39209 14.5427 8.39209H33.4118C34.0928 8.39209 34.7873 8.58601 35.3154 9.02594C35.849 9.47048 36.1943 10.1513 36.1943 11.0822C36.1943 12.0128 35.849 12.6936 35.3154 13.1384C34.7874 13.5786 34.0929 13.7729 33.4118 13.7729H27.0588V36.6873C27.0588 37.561 26.7786 38.297 26.2425 38.8142C25.7071 39.3307 24.9383 39.608 24.0002 39.608C23.0622 39.608 22.2939 39.3307 21.7588 38.8208C21.2228 38.3099 20.9416 37.5854 20.9416 36.7332V13.7729H14.5427C13.8614 13.7729 13.1773 13.5784 12.6602 13.1369C12.1381 12.6911 11.8062 12.0103 11.8062 11.0822C11.8062 10.1542 12.1381 9.4735 12.6603 9.02783Z" fill="black"/>
<path d="M21.8048 17.8125C21.8978 17.862 22.0011 17.8891 22.1064 17.8916C22.2117 17.8942 22.3162 17.872 22.4114 17.827C22.5412 17.7745 22.6569 17.6923 22.7493 17.5871C22.8416 17.4818 22.9081 17.3564 22.9434 17.2209C22.5 15.7866 22.3223 14.2786 22.3809 12.7556C22.3086 12.7108 22.2282 12.6807 22.1442 12.667C21.952 12.652 21.7598 12.6225 21.5527 12.608H21.5086C21.4053 12.6062 21.305 12.643 21.2273 12.7111C21.0942 12.8297 21.0206 13.0069 21.0056 13.2141C20.9031 14.6456 21.0634 16.0838 21.4786 17.4577C21.5049 17.5364 21.5476 17.6088 21.6038 17.6699C21.66 17.7311 21.7285 17.7797 21.8048 17.8125Z" fill="white"/>
<path d="M23.6827 17.6184C23.8453 17.707 24.0525 17.692 24.2452 17.6184L24.3488 17.5443C24.7182 17.3817 24.9399 17.0118 24.8368 16.6865C24.4053 15.3009 24.2446 13.8452 24.3633 12.3988C24.3783 12.1771 24.1861 11.9699 23.9344 11.9404C23.7277 11.9259 23.506 11.8963 23.2988 11.8813H23.2547C23.1454 11.885 23.0407 11.9268 22.9589 11.9995C22.8577 12.0915 22.7943 12.2181 22.7813 12.3543C22.6632 14.0254 22.8403 15.6515 23.3438 17.219C23.3698 17.3053 23.4134 17.3853 23.4717 17.454C23.53 17.5227 23.6018 17.5786 23.6827 17.6184Z" fill="white"/>
<path d="M26.448 14.6611C26.563 14.8402 26.7432 14.9674 26.9505 15.0159L27.1131 15.0628C27.216 15.0865 27.3225 15.0896 27.4266 15.0718C27.5306 15.054 27.6301 15.0157 27.7192 14.9592C27.8986 14.8442 28.0259 14.6637 28.0741 14.4562L28.562 12.2344C28.5783 12.1721 28.5814 12.1071 28.5712 12.0435C28.5611 11.9799 28.5378 11.9191 28.503 11.865C28.4694 11.8086 28.4244 11.7597 28.371 11.7214C28.3176 11.6832 28.2569 11.6564 28.1927 11.6428L27.422 11.4675C27.3891 11.4552 27.354 11.4501 27.3189 11.4525C27.225 11.4522 27.1329 11.4778 27.0527 11.5265C26.9963 11.5602 26.9476 11.6052 26.9094 11.6586C26.8713 11.712 26.8446 11.7727 26.8309 11.8369L26.3439 14.055C26.3199 14.1578 26.3168 14.2645 26.3347 14.3686C26.3525 14.4726 26.3911 14.5721 26.448 14.6611Z" fill="white"/>
<path d="M20.4596 17.5738L20.5482 17.5443C20.7999 17.4557 20.9621 17.204 20.9771 16.9382C20.7083 15.8405 20.594 14.7107 20.6372 13.5815C20.6062 13.5332 20.5649 13.4923 20.5163 13.4617C20.4677 13.431 20.413 13.4115 20.356 13.4043C20.1933 13.3893 20.0162 13.3597 19.8535 13.3452H19.8066C19.7205 13.3461 19.6374 13.3775 19.5722 13.4338C19.4541 13.5224 19.3801 13.6851 19.3655 13.8627C19.2773 14.9412 19.3774 16.0267 19.6613 17.0708C19.6849 17.1737 19.73 17.2703 19.7936 17.3545C19.8573 17.4386 19.9381 17.5082 20.0307 17.5588C20.1788 17.6183 20.3265 17.6329 20.4596 17.5738Z" fill="white"/>
<path d="M27.8969 15.2672C27.7108 15.384 27.4954 15.4456 27.2758 15.4449C27.1914 15.4414 27.1074 15.4315 27.0245 15.4153L26.8619 15.3708C26.7105 15.3382 26.5671 15.2757 26.4402 15.187C26.3133 15.0982 26.2053 14.9851 26.1227 14.8541C26.0401 14.7232 25.9844 14.577 25.9589 14.4243C25.9335 14.2715 25.9388 14.1152 25.9745 13.9646L26.4625 11.7464C26.4873 11.6284 26.5379 11.5173 26.6106 11.4211C26.492 11.0517 26.095 10.1053 25.5901 10.1794C25.1912 10.2385 24.91 10.3861 24.7464 10.6078C24.5542 10.8741 24.512 11.2439 24.6133 11.7614L25.7518 15.5466C25.7601 15.5697 25.7635 15.5942 25.762 15.6187C25.7605 15.6432 25.754 15.6671 25.7429 15.6891C25.7319 15.711 25.7165 15.7304 25.6978 15.7462C25.679 15.762 25.6572 15.7738 25.6337 15.781C25.6158 15.7914 25.5954 15.7966 25.5747 15.796C25.5355 15.7929 25.498 15.7788 25.4665 15.7552C25.435 15.7316 25.4109 15.6996 25.397 15.6628L24.6873 13.3121C24.6856 14.4292 24.8501 15.5405 25.1753 16.6092C25.3379 17.1249 25.0422 17.6874 24.4806 17.925L24.3915 17.9696C24.2508 18.0272 24.1002 18.0573 23.9481 18.0582C23.8005 18.0587 23.6545 18.0285 23.5192 17.9696C23.3755 17.9064 23.2489 17.81 23.1498 17.6883C23.0117 17.9151 22.8043 18.0914 22.5582 18.1913C22.4179 18.2503 22.2671 18.2804 22.1148 18.2799C21.9511 18.2827 21.789 18.2472 21.6414 18.1763C21.3901 18.0432 21.1979 17.8364 21.1257 17.5847V17.5552C21.0078 17.7125 20.8496 17.8351 20.6678 17.91L20.5787 17.9396C20.4753 17.9808 20.3647 18.001 20.2534 17.9991H20.1943C20.4456 18.6052 20.7859 19.1817 21.2443 19.6547C21.9245 20.3644 22.8114 20.7192 23.8759 20.7192C27.6465 20.7192 28.5484 17.5552 28.637 17.1099C28.5484 16.8882 28.2526 16.1044 27.9569 15.2175C27.9409 15.2377 27.9114 15.2527 27.8969 15.2672Z" fill="white"/>
<path d="M28.2655 14.9124C28.3409 14.7944 28.3959 14.6644 28.4281 14.5281L28.9161 12.3104C28.9413 12.1996 28.9437 12.0848 28.9234 11.973C28.9031 11.8612 28.8605 11.7547 28.798 11.6598C28.6738 11.4642 28.477 11.326 28.251 11.2754L27.4967 11.1128C27.3018 11.0701 27.098 11.0962 26.9202 11.1868C26.7575 10.7429 26.2536 10.0674 25.4999 10.172C24.9969 10.2456 24.7846 10.4237 24.5624 10.7345C24.3402 11.0453 24.2778 11.1863 24.3514 11.7188C24.2721 11.6837 24.0645 11.6055 23.9778 11.6017C23.7711 11.5867 23.5489 11.5571 23.3422 11.5426C23.2285 11.5324 23.1138 11.5451 23.005 11.5798C22.8963 11.6146 22.7955 11.6707 22.7088 11.745C22.622 11.8192 22.5509 11.91 22.4998 12.0121C22.4486 12.1142 22.4183 12.2255 22.4108 12.3395V12.354C22.3459 12.3239 22.2751 12.3088 22.2036 12.3099C21.9964 12.2804 21.8042 12.2654 21.5975 12.2509C21.4886 12.238 21.3783 12.2485 21.2738 12.2816C21.1692 12.3148 21.073 12.3698 20.9914 12.4431C20.789 12.621 20.6621 12.8694 20.6366 13.1378C20.5588 13.0932 20.4735 13.0632 20.3849 13.0492C20.2222 13.0342 20.045 13.0046 19.8824 12.9901C19.7849 12.9767 19.6856 12.9843 19.5913 13.0123C19.4969 13.0404 19.4097 13.0882 19.3353 13.1528C19.1281 13.3154 19.01 13.5667 18.9805 13.8474C18.8928 14.9655 18.9928 16.0904 19.2763 17.1756C19.3371 17.4404 19.4954 17.6727 19.7197 17.8262C19.986 18.5804 20.3849 19.3196 20.9614 19.9112C21.7306 20.6945 22.6916 21.0788 23.8597 21.0788H23.8742C28.1624 21.0788 29.0197 17.161 29.0347 17.1165L29.0492 17.0574L29.0197 17.0279C29.0202 17.012 28.6358 16.0065 28.2655 14.9124ZM27.0538 11.5267C27.134 11.4779 27.2261 11.4523 27.32 11.4526C27.3551 11.4502 27.3902 11.4553 27.4231 11.4676L28.1924 11.6448C28.2566 11.6584 28.3173 11.6852 28.3708 11.7234C28.4242 11.7617 28.4691 11.8105 28.5027 11.867C28.5375 11.9211 28.5608 11.9819 28.5709 12.0455C28.5811 12.109 28.578 12.174 28.5617 12.2363L28.0738 14.454C28.0256 14.6615 27.8983 14.842 27.7189 14.957C27.6298 15.0135 27.5303 15.0518 27.4263 15.0696C27.3222 15.0874 27.2157 15.0843 27.1128 15.0606L26.9502 15.0137C26.7429 14.9652 26.5627 14.8379 26.4477 14.6588C26.3911 14.5702 26.3527 14.4711 26.3348 14.3674C26.317 14.2638 26.32 14.1576 26.3436 14.0551L26.8316 11.837C26.8452 11.7727 26.872 11.712 26.9103 11.6586C26.9485 11.6052 26.9974 11.5603 27.0538 11.5267ZM22.7811 12.3545C22.7941 12.2182 22.8575 12.0917 22.9588 11.9996C23.0406 11.9269 23.1452 11.8851 23.2546 11.8815H23.2967C23.5039 11.8965 23.7256 11.926 23.9324 11.9406C24.1841 11.9701 24.3763 12.1749 24.3613 12.399C24.2429 13.8458 24.4041 15.3018 24.8361 16.6876C24.9392 17.0129 24.7175 17.3828 24.3481 17.5454L24.2446 17.6195C24.0524 17.6931 23.8452 17.7081 23.6821 17.6195C23.601 17.5798 23.529 17.5239 23.4705 17.4552C23.412 17.3865 23.3684 17.3064 23.3422 17.2201C22.8397 15.6517 22.6625 14.0256 22.7811 12.3545ZM21.0069 13.2123C21.0219 13.0051 21.0955 12.8279 21.2286 12.7093C21.3063 12.6412 21.4066 12.6045 21.5099 12.6062H21.5539C21.7611 12.6207 21.9533 12.6503 22.1455 12.6653C22.2294 12.679 22.3099 12.7091 22.3822 12.7538C22.3227 14.2768 22.5003 15.7848 22.9447 17.2192C22.9094 17.3547 22.8429 17.48 22.7505 17.5853C22.6582 17.6905 22.5425 17.7727 22.4127 17.8253C22.3174 17.8703 22.213 17.8924 22.1077 17.8899C22.0024 17.8873 21.8991 17.8602 21.8061 17.8107C21.73 17.7778 21.6617 17.7292 21.6056 17.668C21.5495 17.6069 21.507 17.5346 21.4808 17.4559C21.0652 16.0821 20.9044 14.6439 21.0064 13.2123H21.0069ZM19.6616 17.071C19.3777 16.0269 19.2776 14.9413 19.3658 13.8629C19.3803 13.6852 19.4544 13.5226 19.5725 13.434C19.6377 13.3776 19.7207 13.3462 19.8069 13.3454H19.8538C20.0164 13.3599 20.1936 13.3895 20.3563 13.4045C20.4133 13.4116 20.468 13.4312 20.5166 13.4618C20.5652 13.4925 20.6064 13.5334 20.6375 13.5817C20.5942 14.7109 20.7086 15.8407 20.9774 16.9384C20.9624 17.2042 20.8002 17.454 20.5485 17.5445L20.4599 17.574C20.3267 17.6331 20.1786 17.6185 20.031 17.559C19.9383 17.5085 19.8574 17.4388 19.7936 17.3547C19.7299 17.2706 19.6847 17.1739 19.6611 17.071H19.6616ZM23.8752 20.7231C22.8106 20.7231 21.9238 20.3682 21.2436 19.6585C20.7852 19.1856 20.4467 18.609 20.1936 18.0029H20.2527C20.364 18.0049 20.4746 17.9846 20.578 17.9434L20.6671 17.9138C20.8489 17.8389 21.0071 17.7164 21.125 17.559V17.5885C21.1991 17.8403 21.3913 18.047 21.6406 18.1801C21.7882 18.251 21.9504 18.2865 22.1141 18.2837C22.2663 18.2843 22.4172 18.2541 22.5575 18.1951C22.8035 18.0952 23.0109 17.9189 23.1491 17.6921C23.2481 17.8139 23.3748 17.9103 23.5185 17.9734C23.6537 18.0324 23.7998 18.0625 23.9474 18.062C24.0995 18.0611 24.25 18.031 24.3908 17.9734L24.4799 17.9288C25.0424 17.6921 25.3372 17.132 25.1746 16.6131C24.8493 15.5443 24.6849 14.4331 24.6866 13.3159L25.3963 15.6667C25.4102 15.7034 25.4343 15.7354 25.4658 15.759C25.4972 15.7826 25.5347 15.7967 25.5739 15.7998C25.5946 15.8004 25.6151 15.7952 25.633 15.7848C25.6565 15.7776 25.6782 15.7658 25.697 15.75C25.7158 15.7342 25.7312 15.7148 25.7422 15.6929C25.7532 15.671 25.7597 15.647 25.7613 15.6226C25.7628 15.5981 25.7593 15.5735 25.7511 15.5504L24.6139 11.7657C24.5108 11.2501 24.6749 11.1413 24.8671 10.8751C25.0297 10.6534 25.1703 10.5357 25.5702 10.4767C26.0732 10.4026 26.4927 11.056 26.6113 11.4254C26.5386 11.5216 26.488 11.6327 26.4631 11.7507L25.9742 13.9688C25.9385 14.1195 25.9332 14.2758 25.9587 14.4286C25.9841 14.5813 26.0398 14.7275 26.1224 14.8584C26.2051 14.9894 26.313 15.1025 26.4399 15.1913C26.5669 15.28 26.7102 15.3425 26.8616 15.3751L27.0242 15.4196C27.1071 15.4358 27.1911 15.4457 27.2755 15.4492C27.4952 15.4499 27.7105 15.3883 27.8966 15.2715C27.9111 15.257 27.9406 15.242 27.9556 15.2274C28.2514 16.1143 28.5472 16.8981 28.6358 17.1198C28.5467 17.559 27.6453 20.7231 23.8747 20.7231H23.8752Z" fill="black"/>
</svg>
